<svg width="64" height="64" viewBox="0 0 64 64" fill="none" xmlns="http://www.w3.org/2000/svg">
<path d="M60.9678 55.5808H59.0323V22.6776C59.0323 22.1431 58.5991 21.7099 58.0646 21.7099H33.871V10.0969C33.871 9.56242 33.4378 9.12921 32.9033 9.12921H29.0323V4.2905C29.0323 3.75597 28.5991 3.32275 28.0646 3.32275H12.5807C12.0462 3.32275 11.613 3.75597 11.613 4.2905V9.12921H7.742C7.20747 9.12921 6.77426 9.56242 6.77426 10.0969V55.5808H2.90329C2.36876 55.5808 1.93555 56.014 1.93555 56.5486V59.4518C1.93555 59.9859 2.36876 60.4195 2.90329 60.4195H60.9678C61.5023 60.4195 61.9355 59.9859 61.9355 59.4518V56.5486C61.9355 56.014 61.5023 55.5808 60.9678 55.5808ZM33.871 23.6453H57.0968V55.5808H50.3226V45.9034C50.3226 45.3689 49.8894 44.9357 49.3549 44.9357H41.613C41.0784 44.9357 40.6452 45.3689 40.6452 45.9034V55.5808H33.871V23.6453ZM48.3872 46.8711V55.5808H46.4517V46.8711H48.3872ZM44.5162 46.8711V55.5808H42.5807V46.8711H44.5162ZM13.5484 5.25824H27.0968V9.12921H13.5484V5.25824ZM8.70974 11.0647H31.9355V55.5808H25.1614V45.9034C25.1614 45.3689 24.7281 44.9357 24.1936 44.9357H16.4517C15.9171 44.9357 15.4839 45.3689 15.4839 45.9034V55.5808H8.70974V11.0647ZM23.2259 46.8711V55.5808H21.2904V46.8711H23.2259ZM19.3549 46.8711V55.5808H17.4194V46.8711H19.3549ZM60.0001 58.484H3.87103V57.5163H60.0001V58.484Z" fill="#1DE36D"/>
<path d="M19.3547 42.0324V34.2905C19.3547 33.756 18.9215 33.3228 18.3869 33.3228H10.645C10.1105 33.3228 9.67725 33.756 9.67725 34.2905V42.0324C9.67725 42.5666 10.1105 43.0002 10.645 43.0002H18.3869C18.9215 43.0002 19.3547 42.5666 19.3547 42.0324ZM17.4192 41.0647H11.6127V35.2582H17.4192V41.0647Z" fill="#1DE36D"/>
<path d="M22.2583 43.0002H30.0002C30.5347 43.0002 30.968 42.5666 30.968 42.0324V34.2905C30.968 33.756 30.5347 33.3228 30.0002 33.3228H22.2583C21.7237 33.3228 21.2905 33.756 21.2905 34.2905V42.0324C21.2905 42.5666 21.7237 43.0002 22.2583 43.0002ZM23.226 35.2582H29.0325V41.0647H23.226V35.2582Z" fill="#1DE36D"/>
<path d="M10.645 32.3551H18.3869C18.9215 32.3551 19.3547 31.9216 19.3547 31.3874V23.6455C19.3547 23.1109 18.9215 22.6777 18.3869 22.6777H10.645C10.1105 22.6777 9.67725 23.1109 9.67725 23.6455V31.3874C9.67725 31.9216 10.1105 32.3551 10.645 32.3551ZM11.6127 24.6132H17.4192V30.4197H11.6127V24.6132Z" fill="#1DE36D"/>
<path d="M22.2583 32.3551H30.0002C30.5347 32.3551 30.968 31.9216 30.968 31.3874V23.6455C30.968 23.1109 30.5347 22.6777 30.0002 22.6777H22.2583C21.7237 22.6777 21.2905 23.1109 21.2905 23.6455V31.3874C21.2905 31.9216 21.7237 32.3551 22.2583 32.3551ZM23.226 24.6132H29.0325V30.4197H23.226V24.6132Z" fill="#1DE36D"/>
<path d="M10.645 21.7096H18.3869C18.9215 21.7096 19.3547 21.276 19.3547 20.7419V13C19.3547 12.4654 18.9215 12.0322 18.3869 12.0322H10.645C10.1105 12.0322 9.67725 12.4654 9.67725 13V20.7419C9.67725 21.276 10.1105 21.7096 10.645 21.7096ZM11.6127 13.9677H17.4192V19.7742H11.6127V13.9677Z" fill="#1DE36D"/>
<path d="M22.2583 21.7096H30.0002C30.5347 21.7096 30.968 21.276 30.968 20.7419V13C30.968 12.4654 30.5347 12.0322 30.0002 12.0322H22.2583C21.7237 12.0322 21.2905 12.4654 21.2905 13V20.7419C21.2905 21.276 21.7237 21.7096 22.2583 21.7096ZM23.226 13.9677H29.0325V19.7742H23.226V13.9677Z" fill="#1DE36D"/>
<path d="M35.8066 34.2903H55.1614C55.696 34.2903 56.1292 33.8567 56.1292 33.3226V28.4839C56.1292 27.9493 55.696 27.5161 55.1614 27.5161H35.8066C35.2721 27.5161 34.8389 27.9493 34.8389 28.4839V33.3226C34.8389 33.8567 35.2721 34.2903 35.8066 34.2903ZM36.7744 29.4516H54.1937V32.3548H36.7744V29.4516Z" fill="#1DE36D"/>
<path d="M56.1292 41.0648V36.226C56.1292 35.6915 55.696 35.2583 55.1614 35.2583H35.8066C35.2721 35.2583 34.8389 35.6915 34.8389 36.226V41.0648C34.8389 41.5989 35.2721 42.0325 35.8066 42.0325H55.1614C55.696 42.0325 56.1292 41.5989 56.1292 41.0648ZM54.1937 40.097H36.7744V37.1938H54.1937V40.097Z" fill="#1DE36D"/>
</svg>
