<svg width="60" height="60" viewBox="0 0 60 60" fill="none" xmlns="http://www.w3.org/2000/svg">
<path d="M54.1406 3.16406H5.85938C2.62852 3.16406 0 5.79258 0 9.02344V50.9766C0 54.2074 2.62852 56.8359 5.85938 56.8359H54.1406C57.3715 56.8359 60 54.2074 60 50.9766V9.02344C60 5.79258 57.3715 3.16406 54.1406 3.16406ZM57.6562 50.9766C57.6562 52.9151 56.0791 54.4922 54.1406 54.4922H5.85938C3.92086 54.4922 2.34375 52.9151 2.34375 50.9766V9.02344C2.34375 7.08492 3.92086 5.50781 5.85938 5.50781H54.1406C56.0791 5.50781 57.6562 7.08492 57.6562 9.02344V50.9766Z" fill="#1DE36D"/>
<path d="M40.3125 44.4141C38.2447 44.4141 36.5625 46.0963 36.5625 48.1641C36.5625 50.2318 38.2447 51.9141 40.3125 51.9141C42.3803 51.9141 44.0625 50.2318 44.0625 48.1641C44.0625 46.0963 42.3803 44.4141 40.3125 44.4141ZM40.3125 49.5703C39.5371 49.5703 38.9062 48.9395 38.9062 48.1641C38.9062 47.3886 39.5371 46.7578 40.3125 46.7578C41.0879 46.7578 41.7188 47.3886 41.7188 48.1641C41.7188 48.9395 41.0879 49.5703 40.3125 49.5703Z" fill="#1DE36D"/>
<path d="M50.625 44.4141C48.5572 44.4141 46.875 46.0963 46.875 48.1641C46.875 50.2318 48.5572 51.9141 50.625 51.9141C52.6928 51.9141 54.375 50.2318 54.375 48.1641C54.375 46.0963 52.6928 44.4141 50.625 44.4141ZM50.625 49.5703C49.8496 49.5703 49.2188 48.9395 49.2188 48.1641C49.2188 47.3886 49.8496 46.7578 50.625 46.7578C51.4004 46.7578 52.0312 47.3886 52.0312 48.1641C52.0312 48.9395 51.4004 49.5703 50.625 49.5703Z" fill="#1DE36D"/>
<path d="M13.4741 46.9922H6.79688C6.14965 46.9922 5.625 47.5168 5.625 48.1641C5.625 48.8113 6.14965 49.3359 6.79688 49.3359H13.4741C14.1213 49.3359 14.646 48.8113 14.646 48.1641C14.646 47.5168 14.1213 46.9922 13.4741 46.9922Z" fill="#1DE36D"/>
<path d="M28.164 46.9922H21.4868C20.8396 46.9922 20.3149 47.5168 20.3149 48.1641C20.3149 48.8113 20.8396 49.3359 21.4868 49.3359H28.164C28.8113 49.3359 29.3359 48.8113 29.3359 48.1641C29.3359 47.5168 28.8113 46.9922 28.164 46.9922Z" fill="#1DE36D"/>
<path d="M53.2031 8.78906H35.2734C34.6263 8.78906 34.1016 9.31371 34.1016 9.96094C34.1016 10.6082 34.6263 11.1328 35.2734 11.1328H52.0312V26.8172H49.0766C48.6104 26.8172 48.1888 27.0934 48.0025 27.5207L46.956 29.9203L44.8382 23.3771C44.6968 22.9404 44.3135 22.6264 43.8577 22.5738C43.4009 22.5209 42.9567 22.7396 42.7198 23.1328L40.3063 27.1343H37.5012C37.03 27.1343 36.6046 27.4166 36.4214 27.8508L34.9594 31.3175L31.2614 15.2484C31.1418 14.7282 30.6855 14.3546 30.1519 14.3399C29.623 14.3283 29.1421 14.6728 28.9937 15.1856L25.4657 27.3804H21.4255C20.8961 27.3804 20.4323 27.7354 20.2942 28.2465L19.6613 30.5883L16.3025 20.632C16.1486 20.1756 15.7311 19.86 15.2501 19.8361C14.7674 19.8114 14.3223 20.0852 14.1241 20.5242L10.9908 27.4624H7.96875V11.1328H24.7266C25.3738 11.1328 25.8984 10.6082 25.8984 9.96094C25.8984 9.31371 25.3738 8.78906 24.7266 8.78906H6.79688C6.14965 8.78906 5.625 9.31371 5.625 9.96094V40.6641C5.625 41.3113 6.14965 41.8359 6.79688 41.8359H53.2031C53.8502 41.8359 54.375 41.3113 54.375 40.6641V9.96094C54.375 9.31371 53.8502 8.78906 53.2031 8.78906ZM7.96875 39.4922V29.8062H11.7476C12.2081 29.8062 12.626 29.5364 12.8156 29.1166L15.0342 24.204L18.675 34.9963C18.84 35.4853 19.3018 35.8107 19.8214 35.793C20.3373 35.7772 20.782 35.4258 20.9168 34.9275L22.323 29.7243H26.3469C26.8687 29.7243 27.3277 29.3793 27.4726 28.878L29.9905 20.175L33.4888 35.3766C33.6028 35.872 34.0233 36.2374 34.5296 36.2812C34.5638 36.2842 34.5975 36.2856 34.6312 36.2856C35.0988 36.2856 35.5264 36.006 35.7105 35.5691L38.2791 29.478H40.9682C41.3789 29.478 41.7595 29.2631 41.9716 28.9114L43.3998 26.5437L45.6789 33.5852C45.8288 34.0487 46.2498 34.371 46.7361 34.3949C47.225 34.4194 47.6732 34.1393 47.8678 33.6928L49.8441 29.1611H52.0312V39.4922H7.96875Z" fill="#1DE36D"/>
<path d="M30 11.1328C30.3082 11.1328 30.6105 11.0074 30.8284 10.7895C31.0465 10.5715 31.1719 10.2691 31.1719 9.96094C31.1719 9.65273 31.0465 9.35039 30.8284 9.13242C30.6105 8.91445 30.3082 8.78906 30 8.78906C29.6918 8.78906 29.3895 8.91445 29.1715 9.13242C28.9535 9.35039 28.8281 9.65273 28.8281 9.96094C28.8281 10.2691 28.9535 10.5715 29.1715 10.7895C29.3895 11.0074 29.6918 11.1328 30 11.1328Z" fill="#1DE36D"/>
</svg>
