<svg width="30" height="30" viewBox="0 0 30 30" fill="none" xmlns="http://www.w3.org/2000/svg">
<path d="M30 20.8811V19.7092C30 18.74 29.2114 17.9514 28.2422 17.9514H26.6627L26.4847 12.0744C26.465 11.4272 25.9504 10.9204 25.3131 10.9204H24.1412C23.5038 10.9204 22.9892 11.4273 22.9697 12.0744L22.7916 17.9514H20.8032L20.6251 12.0745C20.6056 11.4273 20.091 10.9204 19.4535 10.9204H18.2817C17.6443 10.9204 17.1296 11.4273 17.1101 12.0744L16.9321 17.9514H14.9437L14.7656 12.0744C14.7461 11.4272 14.2314 10.9204 13.594 10.9204H12.4221C11.7847 10.9204 11.2701 11.4273 11.2505 12.0744L11.0724 17.9514H8.88879L8.57057 7.45043C8.76908 7.33307 8.94908 7.18793 9.10424 7.01766C9.4435 7.15529 9.80742 7.2266 10.1793 7.2266C11.7577 7.2266 13.0418 5.94246 13.0418 4.364C13.0418 2.78561 11.7577 1.50146 10.1793 1.50146C9.05994 1.50146 8.06514 2.14723 7.59715 3.1258C7.52631 3.11936 7.45494 3.11607 7.38328 3.11607C6.09855 3.11607 5.05336 4.16127 5.05336 5.44605C5.05336 5.7477 5.11119 6.04031 5.21947 6.31148C4.78969 6.47725 4.48272 6.89033 4.46766 7.38686L4.07648 20.2952H1.75781C0.788555 20.2952 0 21.0838 0 22.0531V23.225C0 23.9888 0.489902 24.6401 1.17188 24.882V27.3267H0.585938C0.262324 27.3267 0 27.5891 0 27.9127C0 28.2362 0.262324 28.4986 0.585938 28.4986H29.4141C29.7376 28.4986 30 28.2362 30 27.9127C30 27.5891 29.7376 27.3267 29.4141 27.3267H28.8281V22.5383C29.5101 22.2963 30 21.645 30 20.8811ZM24.141 12.1099C24.1413 12.1007 24.1443 12.0951 24.1464 12.0922H25.308C25.3101 12.0951 25.3131 12.1007 25.3134 12.1099L25.4904 17.9514H23.964L24.141 12.1099ZM18.2814 12.1099C18.2817 12.1007 18.2846 12.0951 18.2868 12.0922H19.4484C19.4505 12.0951 19.4535 12.1007 19.4538 12.1099L19.6308 17.9514H18.1044L18.2814 12.1099ZM12.4219 12.1099C12.4221 12.1007 12.4251 12.0951 12.4272 12.0922H13.5889C13.591 12.0951 13.5939 12.1007 13.5942 12.1099L13.7712 17.9514H12.2448L12.4219 12.1099ZM7.38316 4.28789C7.51746 4.28789 7.64906 4.31068 7.77416 4.35551C7.92973 4.41129 8.10152 4.39881 8.24742 4.32111C8.39326 4.24348 8.49949 4.10783 8.54004 3.94764C8.72982 3.19729 9.40389 2.67328 10.1791 2.67328C11.1114 2.67328 11.8698 3.43172 11.8698 4.36395C11.8698 5.29623 11.1114 6.05467 10.1791 6.05467C9.84604 6.05467 9.52389 5.95793 9.24744 5.77488C9.10975 5.68371 8.93988 5.65477 8.7798 5.69555C8.61967 5.73615 8.4842 5.84256 8.40662 5.9884C8.31527 6.1602 8.17963 6.30604 8.01832 6.41262C7.83832 6.29883 7.62586 6.23262 7.39699 6.23262H6.53373C6.33609 6.01986 6.22512 5.74143 6.22512 5.44588C6.22512 4.80738 6.74461 4.28789 7.38316 4.28789ZM5.63895 7.42219C5.63918 7.41305 5.64223 7.40742 5.64434 7.40455H7.39195C7.39406 7.40742 7.39699 7.41305 7.39723 7.42225L7.71949 18.0572C7.0452 18.3032 6.5625 18.9509 6.5625 19.7092C6.5625 19.9146 6.59824 20.1117 6.66328 20.2951H5.24883L5.63895 7.42219ZM1.17188 22.053C1.17188 21.7298 1.43473 21.467 1.75781 21.467H7.73432V22.6389H2.92969C2.60607 22.6389 2.34375 22.9012 2.34375 23.2248C2.34375 23.5479 2.0809 23.8108 1.75781 23.8108C1.43473 23.8108 1.17188 23.5479 1.17188 23.2249V22.053ZM2.34375 27.3266V24.8811C2.84227 24.7042 3.23848 24.3093 3.4152 23.8107H7.73426V27.3266H2.34375ZM8.90619 27.3266V21.467H15.6443C15.9679 21.467 16.2302 21.2046 16.2302 20.8811C16.2302 20.5575 15.9679 20.2951 15.6443 20.2951H8.32031C7.99723 20.2951 7.73438 20.0323 7.73438 19.7092C7.73438 19.3861 7.99723 19.1233 8.32031 19.1233H28.2422C28.5653 19.1233 28.8281 19.3862 28.8281 19.7092V20.8811C28.8281 21.2042 28.5653 21.4671 28.2421 21.4671C27.919 21.4671 27.6562 21.2042 27.6562 20.8811C27.6562 20.5575 27.3939 20.2951 27.0703 20.2951H20.9178C20.5942 20.2951 20.3319 20.5575 20.3319 20.8811C20.3319 21.2046 20.5942 21.467 20.9178 21.467H26.5849C26.7616 21.9656 27.1578 22.3604 27.6562 22.5373V27.3266H8.90619Z" fill="white"/>
<path d="M10.8105 22.6392C10.4869 22.6392 10.2246 22.9015 10.2246 23.2251V24.3969C10.2246 24.7205 10.4869 24.9829 10.8105 24.9829C11.1342 24.9829 11.3965 24.7205 11.3965 24.3969V23.2251C11.3965 22.9015 11.1341 22.6392 10.8105 22.6392Z" fill="white"/>
<path d="M13.3008 22.6392C12.9772 22.6392 12.7148 22.9015 12.7148 23.2251V24.3969C12.7148 24.7205 12.9772 24.9829 13.3008 24.9829C13.6244 24.9829 13.8867 24.7205 13.8867 24.3969V23.2251C13.8867 22.9015 13.6243 22.6392 13.3008 22.6392Z" fill="white"/>
<path d="M15.791 22.6392C15.4675 22.6392 15.2051 22.9015 15.2051 23.2251V24.3969C15.2051 24.7205 15.4675 24.9829 15.791 24.9829C16.1146 24.9829 16.377 24.7205 16.377 24.3969V23.2251C16.377 22.9015 16.1146 22.6392 15.791 22.6392Z" fill="white"/>
<path d="M18.2812 22.6392C17.9577 22.6392 17.6953 22.9015 17.6953 23.2251V24.3969C17.6953 24.7205 17.9577 24.9829 18.2812 24.9829C18.6048 24.9829 18.8672 24.7205 18.8672 24.3969V23.2251C18.8672 22.9015 18.6048 22.6392 18.2812 22.6392Z" fill="white"/>
<path d="M20.7715 22.6392C20.4479 22.6392 20.1855 22.9015 20.1855 23.2251V24.3969C20.1855 24.7205 20.4479 24.9829 20.7715 24.9829C21.095 24.9829 21.3574 24.7205 21.3574 24.3969V23.2251C21.3574 22.9015 21.095 22.6392 20.7715 22.6392Z" fill="white"/>
<path d="M23.2617 22.6392C22.9382 22.6392 22.6758 22.9015 22.6758 23.2251V24.3969C22.6758 24.7205 22.9382 24.9829 23.2617 24.9829C23.5853 24.9829 23.8477 24.7205 23.8477 24.3969V23.2251C23.8477 22.9015 23.5853 22.6392 23.2617 22.6392Z" fill="white"/>
<path d="M25.752 22.6392C25.4284 22.6392 25.166 22.9015 25.166 23.2251V24.3969C25.166 24.7205 25.4284 24.9829 25.752 24.9829C26.0755 24.9829 26.3379 24.7205 26.3379 24.3969V23.2251C26.3379 22.9015 26.0755 22.6392 25.752 22.6392Z" fill="white"/>
<path d="M18.2814 20.2949H18.281C17.9575 20.2949 17.6953 20.5573 17.6953 20.8809C17.6953 21.2044 17.9578 21.4668 18.2814 21.4668C18.605 21.4668 18.8674 21.2044 18.8674 20.8809C18.8674 20.5573 18.605 20.2949 18.2814 20.2949Z" fill="white"/>
<defs>
<clipPath id="clip0">
<rect width="30" height="30"/>
</clipPath>
</defs>
</svg>
