<svg width="31" height="31" viewBox="0 0 31 31" fill="none" xmlns="http://www.w3.org/2000/svg">
<g clip-path="url(#clip0)">
<path d="M30.5456 25.6884C30.5454 25.6884 30.5453 25.6884 30.5451 25.6884L28.8073 25.6904L28.8054 24.2246C28.8051 23.9738 28.6017 23.7707 28.351 23.7707C28.3508 23.7707 28.3506 23.7707 28.3504 23.7707C28.0994 23.771 27.8962 23.9747 27.8965 24.2257L27.8984 25.6914L21.0998 25.6993L21.0931 19.8758L25.7983 19.8703C26.0384 19.8701 26.264 19.7763 26.4335 19.6064C26.6031 19.4365 26.6963 19.2107 26.696 18.9706L26.6905 14.2227C26.6902 13.9827 26.5965 13.757 26.4266 13.5875C26.2569 13.4183 26.0316 13.3251 25.7919 13.3251C25.7915 13.3251 25.7912 13.3251 25.7907 13.3251L21.0855 13.3305L21.0833 11.4512L27.8819 11.4434L27.8941 22.1654C27.8944 22.4163 28.0977 22.6194 28.3485 22.6194H28.349C28.6001 22.6191 28.8033 22.4154 28.803 22.1644L28.7908 11.4424L29.6853 11.4414C30.3758 11.4404 30.9367 10.878 30.9358 10.1878L30.9346 8.99587C30.9337 8.30555 30.372 7.74465 29.6822 7.74465C29.6817 7.74465 29.681 7.74465 29.6805 7.74465L26.7697 7.74768C26.5187 7.74792 26.3155 7.95163 26.3158 8.2026C26.316 8.45345 26.5194 8.65656 26.7702 8.65656H26.7707L29.6816 8.65353H29.6821C29.8714 8.65353 30.0255 8.80755 30.0257 8.99696L30.027 10.1889C30.0272 10.3781 29.8734 10.5322 29.6841 10.5325L21.0822 10.5422L21.0801 8.66328L24.7106 8.65898C24.9615 8.65868 25.1648 8.45497 25.1644 8.204C25.1641 7.95321 24.9607 7.7501 24.71 7.7501C24.7098 7.7501 24.7096 7.7501 24.7095 7.7501L21.079 7.7544L21.0766 5.6206C21.0762 5.28552 20.9453 4.97063 20.7081 4.73401C20.4712 4.49771 20.1566 4.36768 19.8221 4.36768C19.8216 4.36768 19.8211 4.36768 19.8207 4.36768L11.1287 4.37773C10.7936 4.3781 10.4787 4.50898 10.2421 4.74619C10.0055 4.98341 9.87534 5.29855 9.87576 5.63362L9.87825 7.76749L1.27619 7.77749C0.94166 7.77785 0.627309 7.90861 0.391061 8.14565C0.154995 8.3825 0.0252066 8.69715 0.0256307 9.03156L0.0269638 10.2237C0.0273273 10.5582 0.157964 10.8725 0.394636 11.1086C0.631005 11.3444 0.944993 11.4742 1.27885 11.4742H1.28043L2.18004 11.4732V12.8338C2.18004 13.0848 2.38351 13.2883 2.63448 13.2883C2.88545 13.2883 3.08892 13.0848 3.08892 12.8338V11.4721L9.88243 11.4642L9.88461 13.3434L5.17964 13.3489C4.93952 13.3491 4.71393 13.4428 4.5444 13.6127C4.37486 13.7826 4.28167 14.0085 4.28197 14.2486L4.28743 18.9965C4.28773 19.2366 4.38147 19.4622 4.55137 19.6317C4.72102 19.8009 4.94636 19.8941 5.18607 19.8941H5.18722L9.89224 19.8887L9.89897 25.7122L3.08898 25.7201V14.894C3.08898 14.643 2.88551 14.4396 2.63454 14.4396C2.38357 14.4396 2.1801 14.643 2.1801 14.894V25.7212L0.453955 25.7232C0.202923 25.7235 -0.000302622 25.9272 3.3829e-07 26.1782C0.000303298 26.429 0.20365 26.6321 0.45444 26.6321H0.454985L30.5461 26.5972C30.7971 26.5969 31.0003 26.3932 31 26.1422C30.9997 25.8915 30.7964 25.6884 30.5456 25.6884ZM25.7816 14.234L25.787 18.9615L21.092 18.9669L21.0865 14.2394L25.7816 14.234ZM1.2794 10.5654C1.27928 10.5654 1.27916 10.5654 1.27898 10.5654C1.18742 10.5654 1.10138 10.5298 1.03661 10.4652C0.971774 10.4005 0.935964 10.3144 0.935843 10.2227L0.93451 9.03053C0.934389 8.93867 0.970017 8.85233 1.03485 8.78725C1.09956 8.7223 1.18566 8.68649 1.27728 8.68637L9.87928 8.67643L9.88146 10.5554L1.2794 10.5654ZM5.19637 18.9854L5.19091 14.2579L9.8857 14.2524L9.89115 18.9799L5.19637 18.9854ZM10.7846 5.63259C10.7845 5.54031 10.8203 5.45348 10.8855 5.38817C10.9507 5.32285 11.0374 5.2868 11.1297 5.28667L19.8217 5.27662H19.8221C20.0124 5.27662 20.1674 5.43137 20.1677 5.62175L20.1909 25.7004L19.0551 25.7017L19.0459 17.6877C19.0454 17.3045 18.8983 16.9441 18.6317 16.6728C18.3631 16.3995 18.0056 16.249 17.6248 16.249C17.6243 16.249 17.6237 16.249 17.6231 16.249L13.3539 16.254C12.9725 16.2544 12.6146 16.4058 12.3463 16.6801C12.0803 16.9521 11.934 17.3128 11.9345 17.696L11.9438 25.71L10.8078 25.7114L10.7846 5.63259ZM12.8434 17.6948C12.8432 17.551 12.8974 17.4163 12.996 17.3156C13.0922 17.2172 13.2197 17.1629 13.355 17.1628L17.6242 17.1578H17.6248C17.7598 17.1578 17.8872 17.2118 17.9835 17.3098C18.0823 17.4103 18.1368 17.5449 18.137 17.6886L18.1463 25.7027L12.8526 25.7088L12.8434 17.6948Z" fill="white"/>
<path d="M12.5435 12.1277H12.5446L14.0599 12.1259L14.0617 13.6412C14.0622 14.1087 14.4427 14.4886 14.9099 14.4886H14.911L16.0625 14.4873C16.2891 14.487 16.5021 14.3985 16.6621 14.2381C16.8222 14.0777 16.9102 13.8645 16.9099 13.6379L16.9082 12.1226L18.4234 12.1208C18.8911 12.1203 19.2713 11.7393 19.2708 11.2715L19.2695 10.1199C19.2692 9.89329 19.1807 9.68037 19.0203 9.52029C18.8601 9.36045 18.6474 9.27253 18.4211 9.27253C18.4208 9.27253 18.4204 9.27253 18.42 9.27253L16.9048 9.27428L16.903 7.75906C16.9028 7.53245 16.8143 7.31953 16.6538 7.15944C16.4936 6.9996 16.2809 6.91162 16.0547 6.91162C16.0544 6.91162 16.054 6.91162 16.0536 6.91162L14.9021 6.91295C14.6755 6.9132 14.4625 7.00172 14.3025 7.16217C14.1424 7.32256 14.0544 7.53578 14.0547 7.76233L14.0564 9.27762L12.5412 9.27937C12.3146 9.27962 12.1016 9.36808 11.9416 9.52853C11.7815 9.68897 11.6935 9.90214 11.6938 10.1288L11.6952 11.2802C11.6954 11.5069 11.7839 11.7198 11.9443 11.8799C12.1046 12.0398 12.3173 12.1277 12.5435 12.1277ZM14.5121 10.186C14.7631 10.1857 14.9663 9.982 14.966 9.73103L14.9638 7.82183L15.9942 7.82062L15.9965 9.72987C15.9965 9.74557 15.9973 9.76102 15.9989 9.77629C16.0224 10.0053 16.2158 10.1838 16.4509 10.1838H16.4515L18.3607 10.1815L18.3619 11.212L16.4526 11.2143C16.2016 11.2146 15.9984 11.4183 15.9987 11.6692L16.001 13.5784L14.9704 13.5796L14.9682 11.6704C14.9679 11.4196 14.7645 11.2165 14.5137 11.2165C14.5136 11.2165 14.5134 11.2165 14.5132 11.2165L12.604 11.2187L12.6028 10.1883L14.5121 10.186Z" fill="white"/>
</g>
<defs>
<clipPath id="clip0">
<rect width="31" height="31" fill="white"/>
</clipPath>
</defs>
</svg>
