<svg width="58" height="58" viewBox="0 0 58 58" fill="none" xmlns="http://www.w3.org/2000/svg">
<path fill-rule="evenodd" clip-rule="evenodd" d="M57.9906 25.5038C57.9412 25.0341 57.6997 24.6058 57.3233 24.3207L52.7289 20.8406L54.4005 15.3249C54.5375 14.8729 54.4813 14.3844 54.2452 13.9755C54.009 13.5665 53.6141 13.2736 53.1543 13.1662L47.5415 11.8556L46.8249 6.13698C46.7662 5.66845 46.5161 5.24501 46.1342 4.96747C45.7522 4.68982 45.2724 4.58299 44.8085 4.6718L39.1481 5.75749L36.1672 0.82466C35.923 0.420586 35.5223 0.135457 35.0605 0.0373556C34.5985 -0.0608592 34.1165 0.0365626 33.7292 0.306399L28.9999 3.60062L24.2705 0.306399C23.883 0.0365626 23.4011 -0.0608592 22.9392 0.0373556C22.4772 0.13557 22.0766 0.420473 21.8324 0.824774L18.8519 5.75772L13.1914 4.67203C12.7278 4.58333 12.2478 4.69004 11.8657 4.9677C11.4837 5.24535 11.2336 5.66857 11.1749 6.13721L10.4584 11.8559L4.84554 13.1664C4.38562 13.2738 3.99083 13.5668 3.75464 13.9757C3.51845 14.3848 3.46226 14.8731 3.59922 15.325L5.27057 20.8408L0.676676 24.3208C0.300242 24.6059 0.0587266 25.0341 0.00933603 25.5038C-0.0399413 25.9734 0.107324 26.4425 0.416242 26.7997L4.18635 31.1589L1.40485 36.2067C1.17704 36.6203 1.13048 37.1098 1.27639 37.5589C1.42229 38.0079 1.74764 38.3766 2.17516 38.5772L7.39244 41.0259L6.90431 46.7688C6.86432 47.2394 7.02088 47.7055 7.33693 48.0565C7.65287 48.4074 8.10011 48.6118 8.57215 48.6213L14.3348 48.7362L16.2244 54.1809C16.3793 54.627 16.7119 54.9893 17.1432 55.1813C17.5747 55.3733 18.0664 55.3782 18.5015 55.1949L23.8127 52.9561L27.7538 57.1616C28.0767 57.5062 28.5279 57.7017 29.0002 57.7017C29.4724 57.7017 29.9235 57.5062 30.2465 57.1616L34.1876 52.9561L39.4985 55.1949C39.9336 55.3781 40.4252 55.3733 40.8567 55.1813C41.2882 54.9892 41.6208 54.6273 41.7756 54.181L43.6655 48.7362L49.4278 48.6213C49.9001 48.6119 50.3472 48.4074 50.6631 48.0565C50.9791 47.7055 51.1357 47.2395 51.0958 46.7688L50.6076 41.0259L55.8253 38.5772C56.2527 38.3766 56.5781 38.0079 56.724 37.5588C56.8699 37.1099 56.8235 36.6203 56.5955 36.2066L53.8136 31.1589L57.5841 26.7997C57.8926 26.4425 58.0399 25.9734 57.9906 25.5038ZM50.2472 31.7657L52.7235 36.2593L48.0789 38.439C47.4317 38.7428 47.0421 39.4177 47.1027 40.13L47.5373 45.2421L42.4077 45.3444C41.6929 45.3587 41.0626 45.8166 40.8281 46.492L39.1456 51.339L34.4179 49.346C33.7591 49.0682 32.9971 49.2302 32.5082 49.7519L28.9999 53.4953L25.4916 49.7517C25.1618 49.3998 24.7077 49.2115 24.2448 49.2115C24.0217 49.2115 23.7962 49.2553 23.5818 49.3457L18.8539 51.3388L17.1717 46.4918C16.9372 45.8164 16.307 45.3584 15.5921 45.3442L10.4621 45.2419L10.8967 40.1297C10.9573 39.4174 10.5677 38.7426 9.92054 38.4388L5.27623 36.2589L7.75233 31.7653C8.09739 31.1391 8.01583 30.3643 7.54831 29.8235L4.19213 25.9431L8.28181 22.8452C8.85173 22.4135 9.09245 21.6726 8.88514 20.9883L7.39731 16.0781L12.3938 14.9115C13.09 14.749 13.6112 14.1699 13.7003 13.4605L14.338 8.36987L19.3769 9.33627C20.079 9.47108 20.7908 9.15401 21.1605 8.54206L23.8138 4.15094L28.0239 7.08334C28.6106 7.49194 29.3897 7.49194 29.9763 7.08334L34.1862 4.15094L36.8397 8.54217C37.2093 9.15401 37.9207 9.47108 38.6233 9.33627L43.6621 8.36987L44.2999 13.4605C44.3888 14.1699 44.9102 14.749 45.6064 14.9115L50.6029 16.0781L49.1148 20.9882C48.9074 21.6724 49.1481 22.4135 49.718 22.8452L53.8079 25.9431L50.4515 29.8235C49.9836 30.3646 49.902 31.1395 50.2472 31.7657ZM29 12.5066C19.9878 12.5066 12.656 19.8385 12.656 28.8505C12.656 37.8625 19.988 45.1945 29 45.1945C38.0119 45.1945 45.344 37.8626 45.344 28.8506C45.344 19.8386 38.0121 12.5066 29 12.5066ZM29 41.7785C21.8715 41.7785 16.0721 35.9791 16.0721 28.8506C16.0721 21.7222 21.8715 15.9227 29 15.9227C36.1284 15.9227 41.9279 21.7222 41.9279 28.8506C41.9279 35.9791 36.1284 41.7785 29 41.7785ZM32.9415 29.6783C32.3862 29.0663 31.5872 28.6753 30.5445 28.5053L33.2305 25.4453V23.6603H24.9005V25.8703H29.9665L27.5185 28.6413V30.4603H28.7765C30.2612 30.4603 31.0035 30.9476 31.0035 31.9223C31.0035 32.4096 30.8052 32.7893 30.4085 33.0613C30.0119 33.322 29.4679 33.4523 28.7765 33.4523C28.1532 33.4523 27.5412 33.3616 26.9405 33.1803C26.3512 32.9876 25.8299 32.7213 25.3765 32.3813L24.3055 34.4893C24.8722 34.8973 25.5579 35.2146 26.3625 35.4413C27.1785 35.6566 28.0059 35.7643 28.8445 35.7643C29.9212 35.7643 30.8279 35.5886 31.5645 35.2373C32.3125 34.886 32.8679 34.4213 33.2305 33.8433C33.5932 33.254 33.7745 32.6136 33.7745 31.9223C33.7745 31.027 33.4969 30.279 32.9415 29.6783Z" fill="url(#paint0_linear)"/>
<defs>
<linearGradient id="paint0_linear" x1="29" y1="0" x2="29" y2="57.7017" gradientUnits="userSpaceOnUse">
<stop stop-color="#4AF490"/>
<stop offset="1" stop-color="#14D5A5"/>
</linearGradient>
</defs>
</svg>
