<svg width="66" height="66" viewBox="0 0 66 66" fill="none" xmlns="http://www.w3.org/2000/svg">
<path fill-rule="evenodd" clip-rule="evenodd" d="M65.9484 1.10641C65.9468 1.0811 65.9456 1.06531 65.9451 1.0593C65.9 0.523696 65.4755 0.099079 64.9397 0.0539618C64.9287 0.0530969 64.8849 0.0499479 64.8099 0.0457877C63.5215 -0.0389477 53.7351 -0.48443 42.3228 4.77268C42.1893 4.8338 42.0716 4.92027 41.9747 5.02535C34.3637 8.60375 26.1311 14.707 19.4235 25.0897L10.8099 24.5153C10.3303 24.468 9.88704 24.765 9.71212 25.2115L3.0411 42.2604C2.86179 42.718 3.0081 43.2383 3.39971 43.5363C3.59552 43.6858 3.8309 43.7607 4.06513 43.7607C4.29716 43.7607 4.52932 43.6882 4.72513 43.5408L10.2622 39.3886L13.1608 39.9681L17.5301 44.3374L16.3333 46.488C14.8779 45.7712 13.1903 45.595 11.5437 46.0121C9.34054 46.5719 7.53882 48.0744 6.60168 50.1368L0.0990061 64.4436C-0.0912593 64.8615 -0.00218519 65.3533 0.322272 65.6766C0.532389 65.8877 0.813919 65.9988 1.09996 65.9988C1.254 65.9988 1.40908 65.9658 1.55539 65.8998L15.8622 59.396C17.9234 58.46 19.4259 56.6583 19.9857 54.4552C20.4174 52.7565 20.2156 51.0121 19.4389 49.5244L21.4805 48.2889L26.0314 52.8397L26.6105 55.7365L22.4583 61.2724C22.1635 61.6662 22.1647 62.2073 22.4627 62.5989C22.675 62.8783 23.0017 63.0334 23.3382 63.0334C23.4724 63.0334 23.6078 63.0081 23.7396 62.9596L40.7885 56.2886C41.235 56.1139 41.5166 55.6695 41.4847 55.1911L40.9102 46.5746C51.292 39.8674 57.3952 31.6356 60.9739 24.0254C61.079 23.9285 61.1656 23.8107 61.2273 23.677C66.6229 11.9662 66.0127 1.96641 65.9484 1.10641ZM44.7562 6.18743C53.5551 2.4619 61.1681 2.17842 63.7891 2.21533C63.8116 3.62987 63.7501 6.49407 63.1169 10.198C62.5682 13.3981 61.5914 17.2285 59.871 21.3023L44.7562 6.18743ZM42.6111 7.15522L58.9031 23.4472C54.86 31.8349 46.9886 42.0072 31.6842 49.1433C30.2664 49.8036 28.8086 50.4277 27.3152 51.0132L23.5649 47.2628L32.4853 41.6312C32.8042 41.4288 32.9978 41.0779 32.9978 40.7006V34.101C32.9978 34.0356 32.9921 33.9715 32.9812 33.9093C32.8909 33.3929 32.4399 33 31.8978 33H24.4865C24.3176 33 24.1544 33.0388 24.0076 33.1099C23.8049 33.2076 23.6333 33.3669 23.5208 33.5708L23.3995 33.791L18.6415 42.3405L14.9857 38.6835C15.6429 37.0073 16.3486 35.3759 17.0996 33.7954C24.006 19.2818 33.7393 11.4101 42.6111 7.15522ZM14.223 50.2799L15.2608 48.4151C14.6537 48.1342 13.9885 47.9899 13.308 47.9899C12.9033 47.9899 12.4931 48.0405 12.085 48.1439C10.5329 48.5376 9.26359 49.5958 8.60475 51.0455L3.31521 62.6837L14.9525 57.3942C16.4022 56.7342 17.4602 55.466 17.854 53.914C18.1323 52.8162 18.03 51.6955 17.5791 50.7254L15.7257 51.7737C15.2967 52.0168 14.7565 51.9442 14.4068 51.5933C14.1152 51.3026 14.0155 50.8787 14.1313 50.4966C14.1537 50.4224 14.1842 50.3497 14.223 50.2799ZM15.8597 31.3247C16.5733 29.9078 17.3234 28.5334 18.1079 27.2056L11.4665 26.7634L6.49823 39.4609L9.33494 37.3337C9.58566 37.1468 9.9047 37.0742 10.2105 37.1347L13.0108 37.6945C13.1768 37.2743 13.3458 36.8567 13.5177 36.442C14.2599 34.6498 15.0424 32.9455 15.8597 31.3247ZM19.6899 44.9806L18.1609 47.7281L30.798 40.0803V35.1999H25.1357L19.8957 44.7142C19.8404 44.8142 19.7708 44.9038 19.6899 44.9806ZM28.3032 52.9882L28.863 55.7873C28.9246 56.0942 28.8521 56.4131 28.665 56.6628L26.5378 59.4995L39.2353 54.5311L38.792 47.8909C37.6602 48.5596 36.4946 49.2033 35.2977 49.8207C33.1233 50.9442 30.7954 52.0044 28.3032 52.9882ZM48.577 17.4219C44.8779 13.7228 38.8603 13.7228 35.1612 17.4219C31.4621 21.121 31.4621 27.1385 35.1612 30.8376C37.0102 32.6877 39.44 33.6117 41.8685 33.6117C44.2983 33.6117 46.7269 32.6867 48.577 30.8376C52.276 27.1385 52.276 21.1208 48.577 17.4219ZM47.0217 29.2823C44.1806 32.1233 39.5577 32.1233 36.7166 29.2823C33.8755 26.4412 33.8755 21.8182 36.7166 18.9771C38.1366 17.5571 40.0031 16.8466 41.8687 16.8466C43.7342 16.8466 45.6008 17.5571 47.0218 18.9771C49.8628 21.8182 49.8628 26.4412 47.0217 29.2823ZM39.6807 26.3169C40.8874 27.5235 42.8496 27.5246 44.0552 26.3169C44.4842 25.8869 45.1814 25.8869 45.6104 26.3169C46.0405 26.7469 46.0405 27.4421 45.6104 27.8722C44.5798 28.9039 43.2248 29.4198 41.8685 29.4198C40.5135 29.4198 39.1572 28.9039 38.1255 27.8722C36.062 25.8088 36.062 22.4506 38.1255 20.3872C40.1889 18.3238 43.5481 18.3238 45.6104 20.3872C46.0405 20.8173 46.0405 21.5125 45.6104 21.9425C45.1816 22.3725 44.4842 22.3725 44.0552 21.9425C42.8485 20.7359 40.8863 20.737 39.6807 21.9425C38.4752 23.1492 38.4752 25.1103 39.6807 26.3169Z" fill="url(#paint0_linear)"/>
<defs>
<linearGradient id="paint0_linear" x1="33.0003" y1="0" x2="33.0003" y2="65.9988" gradientUnits="userSpaceOnUse">
<stop stop-color="#49F591"/>
<stop offset="1" stop-color="#15D4A5"/>
</linearGradient>
</defs>
</svg>
