<svg width="66" height="66" viewBox="0 0 66 66" fill="none" xmlns="http://www.w3.org/2000/svg">
<path fill-rule="evenodd" clip-rule="evenodd" d="M18.3282 5.96882C17.7759 6.36114 17.1158 6.5732 16.4383 6.57601C15.8366 6.57708 15.2463 6.41277 14.7318 6.10103C14.2172 5.78929 13.7982 5.34211 13.5207 4.80837C13.2431 4.27462 13.1175 3.67485 13.1577 3.07458C13.198 2.47431 13.4024 1.89664 13.7487 1.4047C14.0951 0.912764 14.5699 0.525484 15.1215 0.285181C15.673 0.0448773 16.28 -0.0392027 16.8761 0.0421282C17.4722 0.123459 18.0345 0.367072 18.5015 0.746345C18.9685 1.12562 19.3222 1.62596 19.5241 2.19269H29.7898C30.013 1.55213 30.43 0.996895 30.9829 0.603992C31.5359 0.21109 32.1974 0 32.8757 0C33.554 0 34.2155 0.21109 34.7685 0.603992C35.3214 0.996895 35.7384 1.55213 35.9616 2.19269H46.2273C46.4858 1.46154 46.9944 0.845313 47.6633 0.452921C48.3322 0.0605301 49.1183 -0.0827587 49.8827 0.0483806C50.647 0.17952 51.3404 0.576643 51.8402 1.16956C52.3401 1.76248 52.6142 2.51302 52.6142 3.28852C52.6142 4.06403 52.3401 4.81456 51.8402 5.40748C51.3404 6.0004 50.647 6.39753 49.8827 6.52867C49.1183 6.6598 48.3322 6.51652 47.6633 6.12412C46.9944 5.73173 46.4858 5.1155 46.2273 4.38435H40.7996C42.9383 5.66569 44.7294 7.4527 46.0157 9.58833C47.3021 11.724 48.0441 14.1429 48.1768 16.6324C48.9108 16.8825 49.5328 17.3841 49.9329 18.0484C50.3329 18.7128 50.4852 19.4972 50.3629 20.2629C50.2405 21.0287 49.8514 21.7266 49.2643 22.2332C48.6771 22.7399 47.9298 23.0226 47.1544 23.0315C46.3789 23.0405 45.6253 22.775 45.0267 22.282C44.428 21.789 44.023 21.1002 43.883 20.3375C43.7431 19.5747 43.8773 18.787 44.262 18.1136C44.6467 17.4403 45.257 16.9245 45.9851 16.6576C45.7815 13.8454 44.6858 11.1715 42.8574 9.02519C41.0289 6.87883 38.5632 5.37202 35.8191 4.72406C35.553 5.27889 35.1354 5.74721 34.6147 6.075C34.0939 6.4028 33.4911 6.57672 32.8757 6.57672C32.2603 6.57672 31.6575 6.4028 31.1367 6.075C30.616 5.74721 30.1984 5.27889 29.9323 4.72406C27.1889 5.37179 24.7236 6.87795 22.8953 9.02343C21.0669 11.1689 19.9707 13.8418 19.7663 16.6532C20.4944 16.9202 21.1047 17.4359 21.4894 18.1092C21.874 18.7826 22.0083 19.5703 21.8683 20.3331C21.7284 21.0958 21.3233 21.7846 20.7247 22.2776C20.1261 22.7706 19.3725 23.0361 18.597 23.0272C17.8216 23.0182 17.0742 22.7355 16.4871 22.2289C15.9 21.7222 15.5109 21.0243 15.3885 20.2586C15.2662 19.4928 15.4185 18.7084 15.8185 18.044C16.2185 17.3797 16.8406 16.8781 17.5746 16.628C17.708 14.1392 18.4504 11.7212 19.7366 9.58642C21.0229 7.4516 22.8137 5.66528 24.9518 4.38435H19.5241C19.2983 5.02312 18.8806 5.57651 18.3282 5.96882ZM18.0211 20.6371C18.2013 20.7575 18.4132 20.8218 18.6299 20.8218C18.9205 20.8218 19.1993 20.7063 19.4048 20.5008C19.6103 20.2953 19.7257 20.0166 19.7257 19.726C19.7257 19.5092 19.6615 19.2974 19.5411 19.1171C19.4207 18.9369 19.2495 18.7965 19.0493 18.7135C18.849 18.6306 18.6287 18.6089 18.4161 18.6512C18.2036 18.6935 18.0083 18.7978 17.855 18.9511C17.7018 19.1043 17.5974 19.2996 17.5551 19.5122C17.5129 19.7247 17.5346 19.9451 17.6175 20.1453C17.7004 20.3455 17.8409 20.5167 18.0211 20.6371ZM46.5127 20.6371C46.6929 20.7575 46.9047 20.8218 47.1215 20.8218C47.4121 20.8218 47.6908 20.7063 47.8963 20.5008C48.1018 20.2953 48.2173 20.0166 48.2173 19.726C48.2173 19.5092 48.153 19.2974 48.0326 19.1171C47.9122 18.9369 47.7411 18.7965 47.5408 18.7135C47.3406 18.6306 47.1203 18.6089 46.9077 18.6512C46.6951 18.6935 46.4999 18.7978 46.3466 18.9511C46.1933 19.1043 46.089 19.2996 46.0467 19.5122C46.0044 19.7247 46.0261 19.9451 46.1091 20.1453C46.192 20.3455 46.3325 20.5167 46.5127 20.6371ZM49.9219 2.37737C49.7417 2.25696 49.5299 2.19269 49.3131 2.19269C49.0225 2.19269 48.7438 2.30815 48.5383 2.51365C48.3328 2.71916 48.2173 2.99789 48.2173 3.28852C48.2173 3.50526 48.2816 3.71712 48.402 3.89733C48.5224 4.07754 48.6935 4.218 48.8938 4.30094C49.094 4.38388 49.3143 4.40558 49.5269 4.3633C49.7395 4.32101 49.9347 4.21665 50.088 4.06339C50.2413 3.91014 50.3456 3.71488 50.3879 3.50231C50.4302 3.28974 50.4085 3.0694 50.3255 2.86917C50.2426 2.66893 50.1021 2.49779 49.9219 2.37737ZM33.4845 2.37737C33.3043 2.25696 33.0924 2.19269 32.8757 2.19269C32.5851 2.19269 32.3063 2.30815 32.1008 2.51365C31.8953 2.71916 31.7799 2.99789 31.7799 3.28852C31.7799 3.50526 31.8441 3.71712 31.9645 3.89733C32.085 4.07754 32.2561 4.218 32.4563 4.30094C32.6566 4.38388 32.8769 4.40558 33.0895 4.3633C33.3021 4.32101 33.4973 4.21665 33.6506 4.06339C33.8038 3.91014 33.9082 3.71488 33.9505 3.50231C33.9927 3.28974 33.971 3.0694 33.8881 2.86917C33.8052 2.66893 33.6647 2.49779 33.4845 2.37737ZM17.0471 2.37737C16.8669 2.25696 16.655 2.19269 16.4383 2.19269C16.1476 2.19269 15.8689 2.30815 15.6634 2.51365C15.4579 2.71916 15.3424 2.99789 15.3424 3.28852C15.3424 3.50526 15.4067 3.71712 15.5271 3.89733C15.6475 4.07754 15.8187 4.218 16.0189 4.30094C16.2191 4.38388 16.4395 4.40558 16.652 4.3633C16.8646 4.32101 17.0599 4.21665 17.2131 4.06339C17.3664 3.91014 17.4707 3.71488 17.513 3.50231C17.5553 3.28974 17.5336 3.0694 17.4507 2.86917C17.3677 2.66893 17.2273 2.49779 17.0471 2.37737ZM36.6312 20.1413L38.2432 16.9283C38.3291 16.7557 38.3679 16.5635 38.3558 16.3711C38.3437 16.1787 38.281 15.9929 38.1741 15.8325L33.7908 9.2575C33.6848 9.11576 33.5472 9.00069 33.3889 8.92143C33.2306 8.84217 33.0561 8.8009 32.8791 8.8009C32.7021 8.8009 32.5275 8.84217 32.3692 8.92143C32.211 9.00069 32.0734 9.11576 31.9674 9.2575L27.584 15.8325C27.4772 15.9929 27.4145 16.1787 27.4024 16.3711C27.3902 16.5635 27.4291 16.7557 27.515 16.9283L29.1215 20.1413C28.5628 20.4404 28.1032 20.8957 27.799 21.4517C27.4948 22.0077 27.359 22.6402 27.4083 23.272C27.4575 23.9038 27.6897 24.5077 28.0765 25.0097C28.4632 25.5118 28.9878 25.8904 29.5861 26.0993V37.2592C29.5861 37.5499 29.7016 37.8286 29.9071 38.0341C30.1126 38.2396 30.3913 38.355 30.6819 38.355H35.0653C35.3559 38.355 35.6346 38.2396 35.8401 38.0341C36.0456 37.8286 36.1611 37.5499 36.1611 37.2592V26.0993C36.7597 25.891 37.2848 25.5129 37.6721 25.0112C38.0594 24.5094 38.2922 23.9057 38.342 23.2738C38.3919 22.6419 38.2566 22.0092 37.9528 21.4529C37.649 20.8966 37.1898 20.4409 36.6312 20.1413ZM31.7778 13.4797V17.5343H33.9694V13.4797L35.9923 16.5141L34.388 19.726H31.3592L29.7549 16.5174L31.7778 13.4797ZM31.7778 36.1634V26.3009H33.9694V36.1634H31.7778ZM35.0653 24.1093H30.6819C30.3913 24.1093 30.1126 23.9938 29.9071 23.7883C29.7016 23.5828 29.5861 23.3041 29.5861 23.0134C29.5861 22.7228 29.7016 22.4441 29.9071 22.2386C30.1126 22.0331 30.3913 21.9176 30.6819 21.9176H35.0653C35.3559 21.9176 35.6346 22.0331 35.8401 22.2386C36.0456 22.4441 36.1611 22.7228 36.1611 23.0134C36.1611 23.3041 36.0456 23.5828 35.8401 23.7883C35.6346 23.9938 35.3559 24.1093 35.0653 24.1093ZM19.7249 54.7925H20.8207C21.1114 54.7925 21.3901 54.9079 21.5956 55.1134C21.8011 55.319 21.9166 55.5977 21.9166 55.8883V64.6549C21.9166 64.9456 21.8011 65.2243 21.5956 65.4298C21.3901 65.6353 21.1114 65.7508 20.8207 65.7508H3.28749C2.99686 65.7508 2.71813 65.6353 2.51262 65.4298C2.30711 65.2243 2.19166 64.9456 2.19166 64.6549V55.8883C2.19166 55.5977 2.30711 55.319 2.51262 55.1134C2.71813 54.9079 2.99686 54.7925 3.28749 54.7925H4.38332V54.0813L0.239987 48.9024C0.0845232 48.708 -0.000116335 48.4664 1.20012e-07 48.2175V21.9176C1.20012e-07 20.7551 0.461813 19.6402 1.28384 18.8181C2.10588 17.9961 3.22079 17.5343 4.38332 17.5343C5.54584 17.5343 6.66076 17.9961 7.48279 18.8181C8.30482 19.6402 8.76663 20.7551 8.76663 21.9176V31.1664C9.41603 31.2609 10.0357 31.5008 10.5795 31.8681C11.1233 32.2354 11.5772 32.7208 11.9073 33.2879L19.5781 46.5738C19.6743 46.7404 19.7249 46.9293 19.7249 47.1217V54.7925ZM2.19166 47.8329L6.33499 53.0118C6.49045 53.2062 6.57509 53.4477 6.57497 53.6967V54.7925H17.5333V47.4154L10.0082 34.3838C9.71551 33.8845 9.23721 33.5213 8.67769 33.3733C8.11817 33.2254 7.52285 33.3048 7.02165 33.5942C6.52044 33.8835 6.15404 34.3594 6.0024 34.918C5.85077 35.4765 5.92621 36.0723 6.21225 36.5754L13.8831 49.8613L11.9851 50.9571L4.31428 37.6713C3.73496 36.664 3.57841 35.4682 3.87889 34.3458C4.17938 33.2233 4.91241 32.2657 5.91748 31.6825C6.12805 31.5661 6.34798 31.4675 6.57497 31.3878V21.9176C6.57497 21.3364 6.34407 20.7789 5.93305 20.3679C5.52204 19.9569 4.96458 19.726 4.38332 19.726C3.80205 19.726 3.2446 19.9569 2.83358 20.3679C2.42256 20.7789 2.19166 21.3364 2.19166 21.9176V47.8329ZM4.38332 63.5591H19.7249V56.9841H4.38332V63.5591ZM15.3418 59.1758H17.5335V61.3675H15.3418V59.1758ZM50.4085 59.1758H48.2168V61.3675H50.4085V59.1758ZM58.2658 18.8181C59.0878 17.9961 60.2027 17.5343 61.3652 17.5343C62.5278 17.5343 63.6427 17.9961 64.4647 18.8181C65.2867 19.6402 65.7486 20.7551 65.7486 21.9176V48.2175C65.7487 48.4664 65.664 48.708 65.5086 48.9024L61.3652 54.0813V54.7925H62.4611C62.7517 54.7925 63.0304 54.9079 63.2359 55.1134C63.4414 55.319 63.5569 55.5977 63.5569 55.8883V64.6549C63.5569 64.9456 63.4414 65.2243 63.2359 65.4298C63.0304 65.6353 62.7517 65.7508 62.4611 65.7508H44.9278C44.6372 65.7508 44.3584 65.6353 44.1529 65.4298C43.9474 65.2243 43.832 64.9456 43.832 64.6549V55.8883C43.832 55.5977 43.9474 55.319 44.1529 55.1134C44.3584 54.9079 44.6372 54.7925 44.9278 54.7925H46.0236V47.1217C46.0236 46.9293 46.0743 46.7404 46.1705 46.5738L53.8413 33.2879C54.1714 32.7208 54.6252 32.2354 55.169 31.8681C55.7128 31.5008 56.3325 31.2609 56.9819 31.1664V21.9176C56.9819 20.7551 57.4437 19.6402 58.2658 18.8181ZM46.0236 63.5591H61.3652V56.9841H46.0236V63.5591ZM59.4136 53.0118L63.5569 47.8329V21.9176C63.5569 21.3364 63.326 20.7789 62.915 20.3679C62.504 19.9569 61.9465 19.726 61.3652 19.726C60.784 19.726 60.2265 19.9569 59.8155 20.3679C59.4045 20.7789 59.1736 21.3364 59.1736 21.9176V31.3878C59.4007 31.4673 59.6206 31.5659 59.8311 31.6825C60.836 32.2659 61.5688 33.2236 61.869 34.346C62.1693 35.4684 62.0126 36.6641 61.4332 37.6713L53.7624 50.9571L51.8644 49.8613L59.5352 36.5754C59.8213 36.0723 59.8967 35.4765 59.745 34.918C59.5934 34.3594 59.227 33.8835 58.7258 33.5942C58.2246 33.3048 57.6293 33.2254 57.0698 33.3733C56.5102 33.5213 56.0319 33.8845 55.7393 34.3838L48.2153 47.4154V54.7925H59.1736V53.6967C59.1735 53.4477 59.2581 53.2062 59.4136 53.0118ZM45.3738 44.0303L43.5942 41.6557C43.8904 41.0783 44.1389 40.4776 44.3372 39.8596L47.2762 39.4399C47.5372 39.4025 47.776 39.2722 47.9487 39.0729C48.1214 38.8736 48.2164 38.6187 48.2164 38.355V33.9717C48.2164 33.708 48.1214 33.4532 47.9487 33.2539C47.776 33.0546 47.5372 32.9243 47.2762 32.8869L44.3372 32.4672C44.1389 31.8492 43.8904 31.2485 43.5942 30.6711L45.3738 28.2964C45.5318 28.0855 45.6084 27.8247 45.5897 27.5619C45.5709 27.299 45.4581 27.0517 45.2719 26.8653L42.1729 23.7663C41.9864 23.5798 41.7389 23.4668 41.4758 23.4481C41.2127 23.4294 40.9517 23.5062 40.7407 23.6644L37.8006 25.8692L39.1156 27.6225L41.2963 25.9875L43.0496 27.7409L41.4146 29.9227C41.2845 30.0961 41.2088 30.3043 41.1971 30.5209C41.1854 30.7374 41.2382 30.9525 41.3489 31.139C41.8276 31.9436 42.1875 32.8132 42.4173 33.7208C42.4707 33.9313 42.5855 34.1212 42.747 34.2664C42.9086 34.4115 43.1096 34.5054 43.3246 34.5361L46.0248 34.9218V37.405L43.3257 37.7896C43.1107 37.8203 42.9097 37.9142 42.7481 38.0593C42.5866 38.2045 42.4718 38.3944 42.4184 38.6049C42.1886 39.5125 41.8287 40.3821 41.3499 41.1867C41.2393 41.3732 41.1865 41.5883 41.1982 41.8048C41.2099 42.0214 41.2856 42.2295 41.4157 42.403L43.0507 44.5848L41.2973 46.3382L39.121 44.7043C38.9475 44.5738 38.7392 44.4978 38.5225 44.4859C38.3057 44.474 38.0903 44.5267 37.9036 44.6374C37.0983 45.1162 36.2285 45.4767 35.3207 45.7081C35.1107 45.7618 34.9214 45.8766 34.7767 46.0379C34.632 46.1992 34.5383 46.3998 34.5076 46.6143L34.1164 49.3133H31.6332L31.2475 46.6143C31.2168 46.3998 31.1231 46.1992 30.9784 46.0379C30.8337 45.8766 30.6444 45.7618 30.4344 45.7081C29.5266 45.4767 28.6568 45.1162 27.8515 44.6374C27.6648 44.5267 27.4494 44.474 27.2326 44.4859C27.0159 44.4978 26.8076 44.5738 26.6341 44.7043L24.4534 46.3393L22.7 44.5859L24.335 42.4041C24.4651 42.2306 24.5408 42.0225 24.5525 41.8059C24.5642 41.5894 24.5114 41.3743 24.4008 41.1878C23.922 40.3832 23.5621 39.5136 23.3323 38.606C23.2789 38.3955 23.1641 38.2056 23.0026 38.0604C22.841 37.9153 22.64 37.8214 22.425 37.7907L19.7249 37.405V34.9218L22.4239 34.5372C22.6389 34.5065 22.8399 34.4126 23.0015 34.2675C23.163 34.1223 23.2778 33.9324 23.3312 33.7219C23.561 32.8143 23.9209 31.9447 24.3997 31.1401C24.5103 30.9536 24.5631 30.7385 24.5514 30.522C24.5397 30.3054 24.464 30.0972 24.3339 29.9237L22.6989 27.742L24.4523 25.9886L26.633 27.6236L27.948 25.8703L25.0079 23.6655C24.7968 23.5073 24.5358 23.4305 24.2727 23.4492C24.0096 23.4679 23.7621 23.5809 23.5756 23.7674L20.4766 26.8664C20.2904 27.0528 20.1776 27.3001 20.1589 27.563C20.1401 27.8258 20.2168 28.0866 20.3747 28.2975L22.1543 30.6722C21.8581 31.2496 21.6096 31.8503 21.4113 32.4683L18.4723 32.888C18.2117 32.9256 17.9733 33.0559 17.8009 33.2549C17.6284 33.4539 17.5334 33.7084 17.5332 33.9717V38.355C17.5332 38.6187 17.6282 38.8736 17.8009 39.0729C17.9736 39.2722 18.2124 39.4025 18.4734 39.4399L21.4124 39.8596C21.6107 40.4776 21.8592 41.0783 22.1554 41.6557L20.3758 44.0303C20.2179 44.2413 20.1412 44.5021 20.16 44.7649C20.1787 45.0278 20.2915 45.2751 20.4777 45.4615L23.5767 48.5605C23.7632 48.747 24.0107 48.86 24.2738 48.8787C24.5369 48.8974 24.7979 48.8206 25.0089 48.6624L27.3825 46.8817C27.9599 47.1783 28.5606 47.4271 29.1786 47.6258L29.5983 50.5648C29.6357 50.8258 29.766 51.0646 29.9653 51.2373C30.1646 51.41 30.4195 51.505 30.6831 51.505H35.0665C35.3302 51.505 35.585 51.41 35.7843 51.2373C35.9836 51.0646 36.1139 50.8258 36.1513 50.5648L36.571 47.6258C37.189 47.4271 37.7897 47.1783 38.3671 46.8817L40.7407 48.6624C40.9517 48.8206 41.2127 48.8974 41.4758 48.8787C41.7389 48.86 41.9864 48.747 42.1729 48.5605L45.2719 45.4615C45.4581 45.2751 45.5709 45.0278 45.5897 44.7649C45.6084 44.5021 45.5318 44.2413 45.3738 44.0303ZM26.3232 36.7149C26.2312 35.6273 26.4115 34.5339 26.8477 33.5333L28.8564 34.41C28.5657 35.077 28.4457 35.8059 28.5071 36.5309C28.5685 37.2559 28.8094 37.9542 29.2081 38.5629C29.6068 39.1715 30.1508 39.6713 30.7909 40.0172C31.431 40.3631 32.1472 40.5443 32.8748 40.5443C33.6024 40.5443 34.3185 40.3631 34.9587 40.0172C35.5988 39.6713 36.1427 39.1715 36.5414 38.5629C36.9401 37.9542 37.181 37.2559 37.2425 36.5309C37.3039 35.8059 37.1838 35.077 36.8932 34.41L38.9018 33.5333C39.3381 34.5339 39.5183 35.6273 39.4264 36.7149C39.3344 37.8026 38.9731 38.8502 38.3751 39.7633C37.7771 40.6764 36.9612 41.4263 36.0009 41.9453C35.0406 42.4643 33.9663 42.736 32.8748 42.736C31.7833 42.736 30.7089 42.4643 29.7487 41.9453C28.7884 41.4263 27.9725 40.6764 27.3744 39.7633C26.7764 38.8502 26.4151 37.8026 26.3232 36.7149Z" fill="url(#paint0_linear)"/>
<defs>
<linearGradient id="paint0_linear" x1="32.8743" y1="0" x2="32.8743" y2="65.7508" gradientUnits="userSpaceOnUse">
<stop stop-color="#4AF58F"/>
<stop offset="1" stop-color="#14D4A5"/>
</linearGradient>
</defs>
</svg>
