<svg width="31" height="31" viewBox="0 0 31 31" fill="none" xmlns="http://www.w3.org/2000/svg">
<g clip-path="url(#clip0)">
<path d="M19.4132 4.41764C19.3006 4.30502 19.1449 4.24023 18.9858 4.24023C18.8259 4.24023 18.6697 4.30502 18.5572 4.41764C18.4446 4.53025 18.3804 4.68586 18.3804 4.84564C18.3804 5.00488 18.4446 5.16109 18.5572 5.27365C18.6698 5.38627 18.826 5.45105 18.9858 5.45105C19.145 5.45105 19.3006 5.38627 19.4132 5.27365C19.5265 5.16103 19.5906 5.00482 19.5906 4.84564C19.5906 4.68647 19.5265 4.53025 19.4132 4.41764Z" fill="#2A2D43"/>
<path d="M30.8949 10.6758L26.0336 3.53576C25.017 2.04267 23.508 0.922731 21.7843 0.382349C20.0608 -0.158154 18.1824 -0.100332 16.4954 0.544917L1.67532 6.21327C0.349163 6.72047 -0.320608 8.167 0.150447 9.50642C0.566708 10.6897 1.8715 11.3229 3.0584 10.9181L16.8014 6.23125C17.1179 6.12329 17.2869 5.77933 17.1789 5.46285C17.071 5.14631 16.7268 4.97726 16.4105 5.08522L2.66757 9.7721C2.10654 9.96361 1.48957 9.66414 1.29273 9.10469C1.04085 8.38866 1.39893 7.61541 2.10787 7.34428L16.9279 1.67594C19.9057 0.537046 23.2385 1.58203 25.0328 4.21733L28.0186 8.60281L27.7758 8.43183C27.5025 8.23935 27.1248 8.3048 26.9322 8.57817C26.7397 8.8516 26.8052 9.22923 27.0786 9.42177L30.0459 11.5116C30.1511 11.5857 30.273 11.6221 30.3943 11.6221C30.5489 11.6221 30.7024 11.5631 30.8192 11.4481C31.0278 11.2427 31.0597 10.9177 30.8949 10.6758Z" fill="#2A2D43"/>
<path d="M14.7548 18.9094C14.4027 18.3561 13.8561 17.973 13.216 17.8308C11.8938 17.5368 10.5801 18.3734 10.2864 19.695C10.1441 20.3352 10.2597 20.9925 10.6118 21.5458C10.9639 22.0991 11.5104 22.4822 12.1507 22.6245C12.3293 22.6642 12.5076 22.6833 12.6836 22.6833C13.8088 22.6833 14.8262 21.9032 15.0802 20.7603C15.2225 20.1201 15.1069 19.4628 14.7548 18.9094ZM13.8982 20.4975C13.7493 21.1674 13.0833 21.5912 12.4134 21.4425C12.0888 21.3704 11.8118 21.1762 11.6333 20.8957C11.4549 20.6153 11.3962 20.2822 11.4684 19.9577C11.5972 19.3783 12.1128 18.9829 12.683 18.9829C12.7722 18.9829 12.8628 18.9926 12.9533 19.0127C13.2777 19.0848 13.5547 19.279 13.7332 19.5594C13.9117 19.8399 13.9703 20.173 13.8982 20.4975Z" fill="#2A2D43"/>
<path d="M26.6955 29.9523C26.5829 29.8397 26.4267 29.7749 26.2675 29.7749C26.1083 29.7749 25.9521 29.8396 25.8395 29.9523C25.7269 30.0655 25.6621 30.2211 25.6621 30.3809C25.6621 30.5402 25.7268 30.6958 25.8395 30.8083C25.9521 30.9215 26.1083 30.9858 26.2675 30.9858C26.4268 30.9858 26.583 30.9215 26.6955 30.8083C26.8081 30.6958 26.8729 30.5401 26.8729 30.3809C26.8729 30.2211 26.8081 30.0649 26.6955 29.9523Z" fill="#2A2D43"/>
<path d="M30.9793 28.455L25.7214 8.83144C25.7024 8.76078 25.6709 8.69412 25.6282 8.63472L21.9606 3.53285C21.8135 3.32845 21.5551 3.23623 21.3123 3.30144C21.069 3.36659 20.8917 3.57548 20.8666 3.82596L20.2413 10.0782C20.2341 10.1509 20.24 10.2245 20.2589 10.2951L20.2789 10.3694C20.1763 10.1228 19.9185 9.96506 19.6416 10.0015C19.31 10.045 19.0767 10.3492 19.1202 10.6806C19.2569 11.7209 18.9809 12.7515 18.3429 13.5824C17.705 14.4135 16.7807 14.9463 15.7404 15.083C15.7039 15.0878 15.6689 15.0962 15.635 15.107C16.0008 14.8309 16.3323 14.5049 16.6189 14.1316C17.4538 13.0442 17.8151 11.6957 17.6363 10.3346C17.5927 10.0031 17.2886 9.76974 16.9571 9.81327C16.6256 9.8568 16.3922 10.1609 16.4358 10.4924C16.5725 11.5327 16.2964 12.5633 15.6585 13.3943C15.1895 14.0052 14.5653 14.4542 13.8544 14.704C14.1744 14.3795 14.4538 14.0112 14.6824 13.603C15.3525 12.4069 15.5165 11.0206 15.1441 9.69938C15.0534 9.37757 14.719 9.19024 14.3971 9.28094C14.0753 9.3717 13.8879 9.70604 13.9786 10.0279C14.2633 11.0379 14.1381 12.0973 13.6261 13.0113C13.1205 13.914 12.2963 14.5683 11.303 14.8586C8.87532 15.0363 6.60777 16.1358 4.65937 18.1002C4.49148 18.2694 4.33157 18.4395 4.1793 18.6089C4.30638 18.3354 4.44649 18.0579 4.60113 17.7806C6.2362 14.85 8.64052 13.3642 11.7478 13.3642C11.7571 13.3642 11.7663 13.3643 11.7758 13.3642C12.1093 13.3642 12.3802 13.0943 12.3811 12.7605C12.382 12.4261 12.1117 12.1543 11.7773 12.1534C11.7676 12.1534 11.7581 12.1534 11.7483 12.1534C8.21929 12.1534 5.38255 13.8948 3.54367 17.1907C2.18415 19.6275 1.85423 22.0349 1.83927 22.1488C1.80494 22.4057 1.9396 22.6655 2.18766 22.779C2.26928 22.8163 2.35477 22.834 2.43899 22.834C2.66847 22.834 2.88801 22.7028 2.98997 22.4806C2.99839 22.4622 3.85283 20.6229 5.54493 18.9268C6.52289 17.9465 7.56514 17.215 8.66565 16.7334C8.08906 17.3946 7.68279 18.1927 7.48716 19.073C7.17861 20.4611 7.42922 21.8862 8.19253 23.0857C8.53747 23.6277 8.96905 24.0935 9.46583 24.4707C8.48746 24.3987 7.43921 24.2445 6.31618 23.9949C5.99026 23.9226 5.66645 24.1282 5.59385 24.4546C5.52132 24.781 5.72712 25.1043 6.05353 25.1769C7.71881 25.547 9.29152 25.7316 10.7689 25.7316C13.6426 25.7316 16.1531 25.0322 18.266 23.6378C20.3421 22.2678 21.6902 20.4427 22.5479 18.8368L25.0345 28.1163C25.1211 28.4393 25.4531 28.6311 25.776 28.5443C26.099 28.4577 26.2906 28.1258 26.2041 27.8029L21.7129 11.0434C21.9526 11.0928 22.1948 11.1174 22.4358 11.1174C23.3117 11.1174 24.1713 10.7975 24.8361 10.2064L29.8098 28.7684C29.8823 29.0389 30.1269 29.2172 30.3942 29.2172C30.446 29.2172 30.4988 29.2105 30.5513 29.1964C30.8742 29.1098 31.0659 28.7779 30.9793 28.455ZM19.3033 14.3199C20.1372 13.2337 20.4985 11.8871 20.3211 10.5275L21.4763 14.8383C20.7061 14.9897 19.7121 15.1222 18.4777 15.1711C18.781 14.9227 19.0587 14.6385 19.3033 14.3199ZM16.6981 21.1201C16.4597 22.1923 15.8181 23.1077 14.8914 23.6974C13.9646 24.2871 12.8637 24.4807 11.7913 24.2423C10.719 24.004 9.80369 23.3624 9.21402 22.4357C8.62423 21.5089 8.43066 20.408 8.66904 19.3357C9.09444 17.4212 10.7982 16.115 12.6829 16.115C12.9774 16.115 13.2766 16.1469 13.5758 16.2134C14.648 16.4517 15.5633 17.0933 16.1531 18.0201C16.7427 18.9468 16.9364 20.0478 16.6981 21.1201ZM21.7905 16.0106L22.0642 17.0322C21.3047 18.8595 19.8941 21.208 17.3546 22.7835C17.5915 22.349 17.7697 21.8791 17.88 21.3827C18.1885 19.9947 17.938 18.5696 17.1746 17.3701C16.9422 17.0049 16.6702 16.6743 16.3658 16.3818C18.7629 16.4667 20.5548 16.2595 21.7905 16.0106ZM21.4948 9.71113L21.912 5.5398L24.3589 8.94369C23.7004 9.83022 22.5085 10.1495 21.4948 9.71113Z" fill="#2A2D43"/>
</g>
<defs>
<clipPath id="clip0">
<rect width="31" height="31" fill="white"/>
</clipPath>
</defs>
</svg>
