<svg width="14" height="15" viewBox="0 0 14 15" fill="none" xmlns="http://www.w3.org/2000/svg">
<path d="M6.99965 0C4.1579 0 1.8457 2.47736 1.8457 5.5224C1.8457 6.31666 1.99743 7.07501 2.29645 7.77655C3.58508 10.7978 6.05575 13.9876 6.78245 14.8932C6.83689 14.9609 6.91627 14.9998 6.9998 14.9998C7.08333 14.9998 7.1627 14.9609 7.21715 14.8932C7.94356 13.9878 10.4142 10.7981 11.7033 7.77655C12.0024 7.07501 12.154 6.31666 12.154 5.5224C12.1537 2.47736 9.84155 0 6.99965 0ZM6.99965 8.39075C5.52347 8.39075 4.32238 7.10387 4.32238 5.52224C4.32238 3.94047 5.52347 2.65359 6.99965 2.65359C8.47583 2.65359 9.67692 3.94047 9.67692 5.52224C9.67707 7.10387 8.47598 8.39075 6.99965 8.39075Z" fill="#47388A"/>
</svg>
