<svg width="23" height="23" viewBox="0 0 23 23" fill="none" xmlns="http://www.w3.org/2000/svg">
<g clip-path="url(#clip0)">
<path d="M22.3762 16.8797L19.1665 13.67C18.0202 12.5236 16.0714 12.9822 15.6129 14.4724C15.269 15.5041 14.1227 16.0773 13.091 15.848C10.7983 15.2748 7.70322 12.2944 7.13006 9.88708C6.78616 8.85534 7.47396 7.70901 8.50565 7.36516C9.99588 6.90663 10.4544 4.95787 9.30808 3.81154L6.09836 0.601822C5.1813 -0.200607 3.80571 -0.200607 3.00328 0.601822L0.825252 2.77985C-1.35277 5.0725 1.05452 11.148 6.44226 16.5358C11.83 21.9235 17.9055 24.4455 20.1982 22.1528L22.3762 19.9748C23.1787 19.0577 23.1787 17.6821 22.3762 16.8797Z" fill="#1DE36D"/>
</g>
<defs>
<clipPath id="clip0">
<rect width="23" height="23" fill="white"/>
</clipPath>
</defs>
</svg>
