<svg width="16" height="17" viewBox="0 0 16 17" fill="none" xmlns="http://www.w3.org/2000/svg">
<path d="M7.99961 0C4.75189 0 2.10938 2.80767 2.10938 6.25872C2.10938 7.15888 2.28278 8.01834 2.62452 8.81342C4.09724 12.2375 6.92085 15.8526 7.75137 16.8789C7.81359 16.9556 7.90431 16.9998 7.99977 16.9998C8.09523 16.9998 8.18595 16.9556 8.24817 16.8789C9.07836 15.8528 11.902 12.2379 13.3752 8.81342C13.7171 8.01834 13.8903 7.15888 13.8903 6.25872C13.89 2.80767 11.2475 0 7.99961 0ZM7.99961 9.50951C6.31254 9.50951 4.93987 8.05105 4.93987 6.25854C4.93987 4.46586 6.31254 3.0074 7.99961 3.0074C9.68667 3.0074 11.0593 4.46586 11.0593 6.25854C11.0595 8.05105 9.68683 9.50951 7.99961 9.50951Z" fill="#1DE36D"/>
</svg>
