<svg width="13" height="13" viewBox="0 0 13 13" fill="none" xmlns="http://www.w3.org/2000/svg">
<g clip-path="url(#clip0)">
<path d="M12.4492 4.73433C12.2371 4.52335 11.8941 4.52429 11.6831 4.73639L5.17161 11.2831C4.32682 12.1279 2.95476 12.1279 2.10839 11.282C1.26266 10.4358 1.26266 9.06376 2.10849 8.21793L8.81276 1.47844C9.34019 0.951038 10.1977 0.951038 10.7266 1.47958C11.2554 2.00838 11.2554 2.86576 10.7265 3.39471L5.17263 8.94854C5.17227 8.94889 5.17197 8.9493 5.17161 8.94965C4.96003 9.16007 4.61808 9.15979 4.40693 8.94864C4.19542 8.73713 4.19542 8.39432 4.40693 8.18281L7.08774 5.50145C7.29924 5.28989 7.29922 4.94691 7.08766 4.7354C6.8761 4.52389 6.53312 4.52391 6.32161 4.73547L3.64083 7.41679C3.00628 8.05134 3.00628 9.08009 3.64088 9.71467C4.27546 10.3492 5.30421 10.3492 5.93881 9.71467C5.93955 9.71393 5.94013 9.71314 5.94084 9.71241L11.4925 4.16072C12.4445 3.2087 12.4445 1.66537 11.4925 0.713351C10.5404 -0.238109 8.99716 -0.238109 8.0457 0.713351L1.34142 7.45289C0.0735396 8.72078 0.0735395 10.7786 1.34234 12.048C2.61198 13.317 4.66983 13.317 5.93871 12.0481L12.4513 5.50038C12.6622 5.28826 12.6613 4.94531 12.4492 4.73433Z" fill="#03B149"/>
</g>
<defs>
<clipPath id="clip0">
<rect width="13" height="13" fill="white"/>
</clipPath>
</defs>
</svg>
