<svg width="25" height="25" viewBox="0 0 25 25" fill="none" xmlns="http://www.w3.org/2000/svg">
<path d="M22.8027 4.39453H22.0703V1.46484H16.6325L15.8756 0H9.1177L8.38528 1.46484H2.92969V4.39453H2.19727C0.985718 4.39453 0 5.38025 0 6.5918V25H25C25 24.6708 25 7.15084 25 6.5918C25 5.38025 24.0143 4.39453 22.8027 4.39453ZM11.7676 6.20823L9.90658 4.39453H11.7676V6.20823ZM13.2324 4.39453H15.1279L13.2324 6.22139V4.39453ZM14.9837 1.46484L15.7406 2.92969H9.2905L10.0229 1.46484H14.9837ZM4.39453 2.92969H7.65285L7.21111 3.81317L12.4971 8.96454L17.8446 3.81069L17.3893 2.92969H20.6055V10.3027H4.39453V2.92969ZM1.46484 14.6973H4.39453V19.0918H1.46484V14.6973ZM16.2109 23.5352H13.2324V14.6973H16.2109V23.5352ZM11.7676 23.5352H8.83789V14.6973H11.7676V23.5352ZM23.5352 19.0918H20.6055V14.6973H23.5352V19.0918ZM19.1406 13.2324V20.5566H23.5352V23.5352H17.6758V13.2324H7.37305V23.5352H1.46484V20.5566H5.85938V13.2324H1.46484V6.5918C1.46484 6.18801 1.79348 5.85938 2.19727 5.85938H2.92969V11.7676H22.0703V5.85938H22.8027C23.2065 5.85938 23.5352 6.18801 23.5352 6.5918V13.2324H19.1406Z" fill="white"/>
</svg>
