<svg width="27" height="27" viewBox="0 0 27 27" fill="none" xmlns="http://www.w3.org/2000/svg">
<path d="M25.3595 14.48C24.3631 14.1427 23.3062 14.4647 22.667 15.3004L19.7211 19.1528C19.7215 19.1318 19.7227 19.111 19.7227 19.0899C19.7227 17.636 18.5398 16.4532 17.0859 16.4532H11.8531C10.1847 15.0339 7.82678 14.7813 5.90625 15.7754V15.6622C5.90625 15.2253 5.55209 14.8712 5.11523 14.8712H0.791016C0.354164 14.8712 0 15.2253 0 15.6622V26.2091C0 26.6459 0.354164 27.0001 0.791016 27.0001H5.11523C5.55209 27.0001 5.90625 26.6459 5.90625 26.2091V25.418H18.8717C20.7647 25.418 22.5058 24.4675 23.5294 22.8751L26.6164 18.0731C26.8674 17.6829 26.9999 17.2313 26.9999 16.7672C27 15.7152 26.3561 14.8173 25.3595 14.48ZM4.32422 25.418H1.58203V16.4532H4.32422V25.418ZM25.2857 17.2176L22.1986 22.0197C21.4675 23.157 20.2238 23.836 18.8717 23.836H5.90625V17.6513L6.17082 17.4623C7.65482 16.4023 9.68593 16.5504 11.0006 17.8144C11.1479 17.9561 11.3444 18.0353 11.5488 18.0353H17.0859C17.6675 18.0353 18.1406 18.5084 18.1406 19.09C18.1406 19.6715 17.6675 20.1447 17.0859 20.1447H11.5488H11.4434C11.0065 20.1447 10.6523 20.4988 10.6523 20.9357C10.6523 21.3725 11.0065 21.7267 11.4434 21.7267H11.5488H17.0859H17.7899C19.0138 21.7267 20.1882 21.1463 20.9316 20.1741L23.9237 16.2615C24.2604 15.8213 24.7194 15.9337 24.8522 15.9786C24.985 16.0236 25.418 16.2132 25.418 16.7674C25.418 16.9273 25.3722 17.083 25.2857 17.2176Z" fill="white"/>
<path d="M13.8193 9.477C14.3196 9.80432 14.6726 9.91934 15.0983 9.95614V10.2832C15.0983 10.5744 15.3345 10.8105 15.6257 10.8105C15.9169 10.8105 16.153 10.5744 16.153 10.2832V9.90552C17.0293 9.68324 17.5909 8.93478 17.715 8.19677C17.8745 7.24728 17.359 6.38919 16.432 6.0615C16.3402 6.02907 16.2466 5.99532 16.153 5.96057V4.25667C16.3141 4.31605 16.398 4.39678 16.41 4.40896C16.6018 4.62538 16.9325 4.64701 17.1509 4.45669C17.3705 4.26542 17.3935 3.9323 17.2022 3.71271C17.0269 3.51153 16.665 3.25946 16.153 3.17081V2.90039C16.153 2.60919 15.9169 2.37305 15.6257 2.37305C15.3345 2.37305 15.0983 2.60919 15.0983 2.90039V3.22861C15.0659 3.23721 15.0331 3.24633 15 3.25629C14.3749 3.44456 13.9081 3.97818 13.7817 4.64885C13.6658 5.26431 13.8656 5.85979 14.3032 6.20304C14.5098 6.36509 14.7615 6.51359 15.0983 6.668V8.89502C14.86 8.86154 14.6815 8.78075 14.3967 8.59444C14.1529 8.43486 13.8261 8.50337 13.6667 8.74705C13.5072 8.99074 13.5755 9.31753 13.8193 9.477ZM16.153 7.08428C16.7237 7.32465 16.7095 7.81587 16.6749 8.02195C16.6268 8.30777 16.4497 8.60825 16.153 8.77811V7.08428ZM14.9541 5.37321C14.8293 5.27544 14.776 5.06777 14.8182 4.84423C14.8487 4.68218 14.9374 4.49539 15.0983 4.37194V5.47478C15.0464 5.4415 14.998 5.40765 14.9541 5.37321Z" fill="white"/>
<path d="M15.6621 13.1836C19.2968 13.1836 22.2539 10.2265 22.2539 6.5918C22.2539 2.95708 19.2968 0 15.6621 0C12.0274 0 9.07031 2.95708 9.07031 6.5918C9.07031 10.2265 12.0274 13.1836 15.6621 13.1836ZM15.6621 1.58203C18.4245 1.58203 20.6719 3.82941 20.6719 6.5918C20.6719 9.35418 18.4245 11.6016 15.6621 11.6016C12.8997 11.6016 10.6523 9.35418 10.6523 6.5918C10.6523 3.82941 12.8997 1.58203 15.6621 1.58203Z" fill="white"/>
</svg>
