<svg width="17" height="17" viewBox="0 0 17 17" fill="none" xmlns="http://www.w3.org/2000/svg">
<g clip-path="url(#clip0)">
<path d="M16.539 12.4763L14.1666 10.1039C13.3193 9.2566 11.8789 9.59555 11.54 10.697C11.2858 11.4596 10.4385 11.8832 9.67597 11.7137C7.9814 11.2901 5.69373 9.08714 5.27008 7.30784C5.0159 6.54525 5.52427 5.69797 6.28683 5.44381C7.3883 5.1049 7.72721 3.66451 6.87993 2.81723L4.50753 0.444825C3.8297 -0.148275 2.81295 -0.148275 2.21985 0.444825L0.610011 2.05467C-0.999833 3.74924 0.779468 8.23986 4.76171 12.2221C8.74396 16.2043 13.2346 18.0684 14.9291 16.3738L16.539 14.764C17.1321 14.0861 17.1321 13.0694 16.539 12.4763Z" fill="#1DE36D"/>
</g>
<defs>
<clipPath id="clip0">
<rect width="17" height="17" fill="white"/>
</clipPath>
</defs>
</svg>
