<svg width="28" height="28" viewBox="0 0 28 28" fill="none" xmlns="http://www.w3.org/2000/svg">
<g clip-path="url(#clip0)">
<path d="M19.8929 15.0898H16.0882C15.0469 15.0898 14.2002 15.9366 14.2002 16.9779V19.8957C14.2002 20.937 15.0469 21.7838 16.0882 21.7838H19.8929C20.9342 21.7838 21.7809 20.937 21.7809 19.8957V16.9779C21.7809 15.9366 20.9342 15.0898 19.8929 15.0898ZM20.4078 19.8957C20.4078 20.1818 20.1732 20.4106 19.8929 20.4106H16.0882C15.8022 20.4106 15.5733 20.1761 15.5733 19.8957V16.9779C15.5733 16.6918 15.8079 16.463 16.0882 16.463H19.8929C20.179 16.463 20.4078 16.6975 20.4078 16.9779V19.8957Z" fill="white"/>
<path d="M28 9.78617C28 9.66603 27.9714 9.5516 27.9085 9.44862L23.7434 2.12537C23.6232 1.91368 23.3944 1.77637 23.1483 1.77637H4.84593C4.59992 1.77637 4.37107 1.90796 4.25092 2.12537L0.0915407 9.44862C0.0343277 9.5516 0 9.66603 0 9.78617C0 11.4282 0.989783 12.8356 2.40294 13.4592V25.5369C2.40294 25.9145 2.71189 26.2234 3.0895 26.2234H6.88271C6.88844 26.2234 6.89416 26.2234 6.89988 26.2234H12.2207C12.2264 26.2234 12.2321 26.2234 12.2378 26.2234H24.9048C25.2824 26.2234 25.5913 25.9145 25.5913 25.5369V13.5451C25.5913 13.5165 25.5913 13.4936 25.5856 13.4707C27.0045 12.8471 28 11.4339 28 9.78617ZM5.24642 3.1552H22.7479L26.0033 8.88221H1.99673L5.24642 3.1552ZM19.9273 10.2496C19.7098 11.4854 18.6285 12.4237 17.3298 12.4237C16.0311 12.4237 14.9497 11.4854 14.7323 10.2496H19.9273ZM13.2734 10.2496C13.056 11.4854 11.9747 12.4237 10.6759 12.4237C9.3772 12.4237 8.29587 11.4854 8.07274 10.2496H13.2734ZM1.41888 10.2496H6.61953C6.40212 11.4854 5.31508 12.4237 4.01635 12.4237C2.71761 12.4294 1.63629 11.4854 1.41888 10.2496ZM11.5341 24.8503H7.58643V17.4413C7.58643 16.9035 8.02125 16.4629 8.56477 16.4629H10.5615C11.0993 16.4629 11.5398 16.8977 11.5398 17.4413V24.8503H11.5341ZM24.2182 24.8503H12.9072V17.4413C12.9072 16.1483 11.8545 15.0898 10.5558 15.0898H8.55905C7.26604 15.0898 6.2076 16.1425 6.2076 17.4413V24.8561H3.77605V13.7968C3.85615 13.8025 3.93625 13.8025 4.01635 13.8025C5.4009 13.8025 6.62526 13.0988 7.34614 12.0289C8.06702 13.0988 9.29138 13.8025 10.6759 13.8025C12.0605 13.8025 13.2791 13.0988 14.0057 12.0289C14.7266 13.0988 15.951 13.8025 17.3298 13.8025C18.7143 13.8025 19.933 13.0988 20.6539 12.0289C21.3747 13.0988 22.5991 13.8025 23.9837 13.8025C24.0638 13.8025 24.1381 13.7968 24.2182 13.7968V24.8503ZM23.9837 12.4294C22.6849 12.4294 21.6036 11.4911 21.3862 10.2553H26.5868C26.3637 11.4854 25.2824 12.4294 23.9837 12.4294Z" fill="white"/>
</g>
<defs>
<clipPath id="clip0">
<rect width="28" height="28" fill="white"/>
</clipPath>
</defs>
</svg>
