<svg width="27" height="27" viewBox="0 0 27 27" fill="none" xmlns="http://www.w3.org/2000/svg">
<path d="M23.4795 10.6674H16.875V6.92978C16.875 6.14027 16.3326 5.4681 15.6696 5.22209V4.27902C15.6696 3.28207 14.833 2.47098 13.8361 2.47098H13.8013V1.83377C13.8013 0.836819 12.9784 0 11.9813 0H6.21482C5.21805 0 4.39955 0.836819 4.39955 1.83377V2.50148C3.5558 2.65655 2.95312 3.39435 2.95312 4.27902V5.22209C2.22991 5.4681 1.6875 6.14045 1.6875 6.92978V26.3716C1.69714 26.7143 1.97245 26.9899 2.31513 27H24.6849C25.0276 26.9899 25.3029 26.7143 25.3125 26.3716V12.4521C25.3125 11.4551 24.4765 10.6674 23.4795 10.6674ZM5.60491 1.83377C5.60672 1.49452 5.876 1.21723 6.215 1.20536H11.9813C12.3212 1.21675 12.5921 1.49362 12.596 1.83377V2.47098H5.60491V1.83377ZM4.15848 4.27902C4.15848 3.94616 4.4283 3.67634 4.76116 3.67634H13.8616C14.1945 3.67634 14.4643 3.94616 14.4643 4.27902V5.72545C14.4643 6.05831 14.1945 6.32812 13.8616 6.32812H4.76116C4.4283 6.32812 4.15848 6.05831 4.15848 5.72545V4.27902ZM11.0893 25.7946H7.11161V22.5835C7.10938 22.2621 7.36811 21.9999 7.68946 21.9976C7.69494 21.9976 7.70036 21.9976 7.70579 21.9978H10.4906C10.814 21.9906 11.0819 22.2469 11.0892 22.5703C11.0893 22.5747 11.0893 22.5791 11.0893 22.5835V25.7946ZM15.6696 25.7946H15.1812H12.2946V22.5835C12.294 21.5937 11.4912 20.7917 10.5014 20.7924C10.4978 20.7924 10.4943 20.7924 10.4906 20.7924H7.70579C6.71812 20.7863 5.91246 21.5819 5.90631 22.5696C5.90631 22.5742 5.90625 22.5788 5.90625 22.5835V25.7946H2.89286V6.92978C2.89744 6.76531 2.96801 6.60958 3.08873 6.49772C3.39326 7.13059 4.03331 7.53312 4.73561 7.53348H13.8361C14.5372 7.533 15.1758 7.13023 15.4784 6.49772C15.5978 6.61006 15.6667 6.76585 15.6696 6.92978V25.7946ZM24.1071 25.7946H16.875V23.3237H24.1071V25.7946ZM24.1071 22.1183H16.875V19.5268H24.1071V22.1183ZM24.1071 18.3214H16.875V15.7299H24.1071V18.3214ZM24.1071 14.5246H16.875V11.8728H23.4795C23.8118 11.8728 24.1071 12.1199 24.1071 12.4521V14.5246Z" fill="white"/>
<path d="M7.83489 8.55811H4.94203C4.60917 8.55811 4.33936 8.82792 4.33936 9.16078V12.0536C4.33936 12.3865 4.60917 12.6563 4.94203 12.6563H7.83489C8.16775 12.6563 8.43757 12.3865 8.43757 12.0536V9.16078C8.43757 8.82792 8.16775 8.55811 7.83489 8.55811ZM7.17194 11.451H5.54471V9.76346H7.17194V11.451Z" fill="white"/>
<path d="M13.3193 8.55811H10.4264C10.0935 8.55811 9.82373 8.82792 9.82373 9.16078V12.0536C9.82373 12.3865 10.0935 12.6563 10.4264 12.6563H13.3193C13.6521 12.6563 13.9219 12.3865 13.9219 12.0536V9.16078C13.9219 8.82792 13.6521 8.55811 13.3193 8.55811ZM12.6563 11.451H11.0291V9.76346H12.6563V11.451Z" fill="white"/>
<path d="M7.83489 14.645H4.94203C4.60917 14.645 4.33936 14.9148 4.33936 15.2477V18.1406C4.33936 18.4734 4.60917 18.7432 4.94203 18.7432H7.83489C8.16775 18.7432 8.43757 18.4734 8.43757 18.1406V15.2477C8.43757 14.9148 8.16775 14.645 7.83489 14.645ZM7.17194 17.5379H5.54471V15.8504H7.17194V17.5379Z" fill="white"/>
<path d="M13.3193 14.645H10.4264C10.0935 14.645 9.82373 14.9148 9.82373 15.2477V18.1406C9.82373 18.4734 10.0935 18.7432 10.4264 18.7432H13.3193C13.6521 18.7432 13.9219 18.4734 13.9219 18.1406V15.2477C13.9219 14.9148 13.6521 14.645 13.3193 14.645ZM12.6563 17.5379H11.0291V15.8504H12.6563V17.5379Z" fill="white"/>
</svg>
