<svg width="60" height="60" viewBox="0 0 60 60" fill="none" xmlns="http://www.w3.org/2000/svg">
<path d="M18.9784 14.7188C18.7604 14.5009 18.4581 14.3755 18.1499 14.3755C17.8417 14.3755 17.5394 14.5009 17.3214 14.7188C17.1035 14.9368 16.978 15.2392 16.978 15.5474C16.978 15.8556 17.1034 16.1579 17.3214 16.3759C17.5394 16.594 17.8417 16.7192 18.1499 16.7192C18.4581 16.7192 18.7604 16.5939 18.9784 16.3759C19.1963 16.1579 19.3218 15.8556 19.3218 15.5474C19.3218 15.2392 19.1964 14.9368 18.9784 14.7188Z" fill="#1DE36D"/>
<path d="M59.6572 4.90421L58.2082 3.45355L59.6568 2.00499C60.1144 1.54737 60.1144 0.805342 59.6568 0.347607C59.199 -0.11001 58.4572 -0.11001 57.9994 0.347607L56.5516 1.79522L55.1239 0.365771C54.9042 0.145928 54.6063 0.0221777 54.2955 0.0220605L34.4611 0.0110449C34.4599 0.0110449 34.4589 0.0110449 34.4578 0.0110449C32.8916 0.0110449 31.4191 0.620889 30.3116 1.72843L20.4139 11.6261C19.9563 12.0837 19.9563 12.8257 20.4139 13.2835C20.8717 13.7411 21.6135 13.7411 22.0713 13.2835L31.969 3.38581C32.6339 2.72089 33.5176 2.35491 34.4578 2.35491C34.4585 2.35491 34.4592 2.35491 34.4598 2.35491L53.8088 2.36569L54.8946 3.45272L50.5465 7.80085C48.7027 6.69647 46.2718 6.93729 44.6846 8.52425C43.778 9.43104 43.2786 10.6366 43.2786 11.9188C43.2786 13.2011 43.778 14.4066 44.6846 15.3134C45.6205 16.2492 46.8499 16.7172 48.0793 16.7172C49.3086 16.7172 50.5379 16.2492 51.4739 15.3134C53.0585 13.7287 53.301 11.3026 52.2023 9.45975L56.5511 5.11104L57.6561 6.21741L57.6454 25.5401C57.6448 26.4795 57.2787 27.3627 56.6143 28.0271L28.0179 56.6233C27.3531 57.2881 26.4691 57.6542 25.5291 57.6542C24.589 57.6542 23.705 57.2881 23.0402 56.6233L3.37477 36.9577C2.70984 36.2929 2.34375 35.4089 2.34375 34.4689C2.34375 33.5288 2.70984 32.6448 3.37477 31.98L16.0069 19.3479C16.4645 18.8903 16.4645 18.1483 16.0069 17.6905C15.5491 17.2329 14.8073 17.2329 14.3495 17.6905L1.71738 30.3226C0.609961 31.4301 0 32.9026 0 34.4689C0 36.0351 0.609961 37.5076 1.71738 38.6151L21.3829 58.2807C22.526 59.4237 24.0274 59.9953 25.5291 59.9953C27.0307 59.9953 28.5321 59.4237 29.6753 58.2807L58.2716 29.6842C59.3782 28.5776 59.988 27.1062 59.989 25.5412L60 5.73296C60.0002 5.42218 59.8768 5.12405 59.6572 4.90421ZM49.8165 13.6559C49.3525 14.12 48.7355 14.3755 48.0793 14.3755C47.423 14.3755 46.8061 14.12 46.342 13.6559C45.384 12.698 45.384 11.1393 46.342 10.1814C46.8211 9.70233 47.45 9.46292 48.0793 9.46292C48.3163 9.46292 48.5531 9.49702 48.7821 9.56499L47.4295 10.9176C46.9719 11.3752 46.9719 12.1172 47.4295 12.575C47.6584 12.8038 47.9583 12.9182 48.2582 12.9182C48.558 12.9182 48.8579 12.8038 49.0868 12.575L50.4356 11.2261C50.6793 12.0604 50.4731 12.9993 49.8165 13.6559Z" fill="#1DE36D"/>
<path d="M50.058 23.5973L36.4011 9.94026C34.5919 8.13112 31.648 8.13136 29.8391 9.94026L8.22731 31.5522C7.35086 32.4285 6.86816 33.5937 6.86816 34.8331C6.86816 36.0725 7.35074 37.2378 8.22719 38.1141L21.8842 51.7709C22.7607 52.6474 23.9257 53.1301 25.1651 53.1301C26.4045 53.1301 27.5698 52.6475 28.446 51.771L50.058 30.1591C50.9344 29.2826 51.417 28.1176 51.417 26.8782C51.417 25.6388 50.9344 24.4736 50.058 23.5973ZM48.4006 28.5017L26.7887 50.1139C26.3552 50.5475 25.7785 50.7863 25.1652 50.7863C24.552 50.7863 23.9753 50.5475 23.5417 50.1138L9.88457 36.4569C9.45086 36.0231 9.21203 35.4466 9.21203 34.8332C9.21191 34.2199 9.45086 33.6432 9.88457 33.2096L31.4965 11.5976C31.9442 11.15 32.5321 10.9262 33.1202 10.9262C33.7081 10.9262 34.2961 11.1501 34.7437 11.5976L48.4006 25.2546C48.8343 25.6883 49.0731 26.2648 49.0731 26.8782C49.0731 27.4914 48.8343 28.0681 48.4006 28.5017Z" fill="#1DE36D"/>
<path d="M38.2121 23.4474C38.6697 22.9898 38.6697 22.2477 38.2121 21.79C37.7544 21.3324 37.0126 21.3324 36.5547 21.79L35.88 22.4648C34.0782 21.3518 31.7663 21.5012 30.3049 22.9625C29.4528 23.8145 29.0169 24.9716 29.0773 26.2205C29.1358 27.4266 29.6552 28.578 30.5396 29.4624C30.5397 29.4625 30.5398 29.4625 30.5398 29.4626C31.4824 30.4056 31.5876 31.8344 30.7743 32.6476C29.9607 33.461 28.5317 33.3557 27.5888 32.413C26.6459 31.47 26.5407 30.041 27.3541 29.2275C27.8117 28.7699 27.8117 28.0279 27.3541 27.5701C26.8964 27.1125 26.1546 27.1125 25.6967 27.5701C24.2354 29.0315 24.0861 31.3434 25.199 33.1452L24.3984 33.9457C23.9408 34.4034 23.9408 35.1454 24.3984 35.6031C24.6278 35.8322 24.9277 35.9466 25.2276 35.9466C25.5276 35.9466 25.8274 35.8321 26.0562 35.6034L26.8573 34.8023C27.6446 35.2885 28.5289 35.5348 29.3975 35.5348C30.5165 35.5347 31.6091 35.1277 32.4318 34.305C34.1587 32.578 34.0537 29.663 32.198 27.8062C32.1977 27.8058 32.1974 27.8055 32.1971 27.8051C31.7253 27.3333 31.4487 26.7304 31.4185 26.1071C31.3905 25.5267 31.5835 24.9986 31.9624 24.6198C32.7757 23.8064 34.2044 23.9117 35.1474 24.8542C35.1475 24.8543 35.1475 24.8544 35.1476 24.8546C35.1478 24.8547 35.1479 24.8547 35.1479 24.8547C36.0905 25.7977 36.1957 27.2264 35.3823 28.0398C34.9246 28.4975 34.9246 29.2395 35.3823 29.6972C35.6111 29.9261 35.911 30.0405 36.2109 30.0405C36.5108 30.0405 36.8107 29.9261 37.0395 29.6972C38.5008 28.2358 38.6503 25.9239 37.5373 24.1221L38.2121 23.4474Z" fill="#1DE36D"/>
<path d="M26.3515 42.8752L20.3326 36.8562C19.875 36.399 19.1332 36.3987 18.6752 36.8562C18.2176 37.3138 18.2176 38.0559 18.6752 38.5136L24.6942 44.5326C24.9231 44.7613 25.223 44.8758 25.5229 44.8758C25.8227 44.8758 26.1226 44.7613 26.3515 44.5326C26.8091 44.075 26.8091 43.3329 26.3515 42.8752Z" fill="#1DE36D"/>
<path d="M17.1219 33.6456C16.904 33.4278 16.6027 33.3022 16.2935 33.3022C15.9853 33.3022 15.6841 33.4276 15.4649 33.6456C15.247 33.8636 15.1216 34.1659 15.1216 34.4753C15.1216 34.7835 15.2469 35.0858 15.4649 35.3038C15.6829 35.5218 15.9853 35.6472 16.2935 35.6472C16.6028 35.6472 16.904 35.5218 17.1219 35.3038C17.341 35.0847 17.4664 34.7835 17.4664 34.4753C17.4664 34.1659 17.341 33.8647 17.1219 33.6456Z" fill="#1DE36D"/>
</svg>
