<svg width="25" height="25" viewBox="0 0 25 25" fill="none" xmlns="http://www.w3.org/2000/svg">
<path d="M24.8332 12.0336C22.561 9.2653 17.7504 6.03467 12.5 6.03467C7.23086 6.03467 2.42002 9.28727 0.166838 12.0336C-0.0556128 12.3048 -0.0556128 12.6953 0.166838 12.9664C2.49292 15.8017 7.31483 18.9654 12.5 18.9654C17.8695 18.9654 22.6596 15.6146 24.8332 12.9664C25.0557 12.6953 25.0557 12.3048 24.8332 12.0336ZM17.4948 12.5C17.4948 15.2541 15.2541 17.4948 12.5 17.4948C9.74576 17.4948 7.50517 15.254 7.50517 12.5C7.50517 9.74589 9.74581 7.50521 12.5 7.50521C15.2544 7.50526 17.4948 9.74619 17.4948 12.5ZM1.72855 12.5002C2.55615 11.6401 4.55164 9.78374 7.35287 8.59232C5.59493 10.9022 5.59424 14.0959 7.35204 16.4066C5.22218 15.5039 3.24365 14.0778 1.72855 12.5002ZM17.6472 16.4077C19.4051 14.0978 19.4058 10.9041 17.648 8.59339C19.7778 9.49609 21.7564 10.9223 23.2715 12.4998C22.4439 13.36 20.4484 15.2162 17.6472 16.4077Z" fill="white"/>
<path d="M10 12.5C10 13.8785 11.1215 15 12.5 15C13.8785 15 15 13.8785 15 12.5C15 11.1215 13.8785 10 12.5 10C11.1215 10 10 11.1215 10 12.5ZM13.5294 12.5C13.5294 13.0676 13.0676 13.5294 12.5 13.5294C11.9323 13.5294 11.4706 13.0676 11.4706 12.5C11.4706 11.9323 11.9323 11.4706 12.5 11.4706C13.0676 11.4706 13.5294 11.9323 13.5294 12.5Z" fill="white"/>
<path d="M12.4999 3.18628C12.906 3.18628 13.2352 2.85706 13.2352 2.45098V0.735294C13.2352 0.329216 12.906 0 12.4999 0C12.0939 0 11.7646 0.329216 11.7646 0.735294V2.45098C11.7646 2.85706 12.0939 3.18628 12.4999 3.18628Z" fill="white"/>
<path d="M16.8872 4.16993C17.2398 4.37101 17.6889 4.24841 17.8902 3.89547L18.8688 2.17978C19.0699 1.82704 18.9471 1.37802 18.5943 1.17679C18.2415 0.975615 17.7926 1.09841 17.5913 1.45125L16.6128 3.16694C16.4116 3.51963 16.5345 3.9687 16.8872 4.16993Z" fill="white"/>
<path d="M7.1099 3.89546C7.31108 4.24821 7.7601 4.37105 8.1129 4.16987C8.46564 3.9687 8.58849 3.51963 8.38731 3.16688L7.40878 1.45119C7.2076 1.09845 6.75848 0.975607 6.40579 1.17678C6.05304 1.37796 5.9302 1.82703 6.13137 2.17977L7.1099 3.89546Z" fill="white"/>
<path d="M12.4999 21.814C12.0939 21.814 11.7646 22.1432 11.7646 22.5493V24.265C11.7646 24.671 12.0939 25.0003 12.4999 25.0003C12.906 25.0003 13.2352 24.671 13.2352 24.265V22.5493C13.2352 22.1432 12.906 21.814 12.4999 21.814Z" fill="white"/>
<path d="M8.11289 20.8301C7.76014 20.629 7.31113 20.7517 7.1099 21.1045L6.13137 22.8202C5.9302 23.1729 6.05304 23.622 6.40578 23.8232C6.75858 24.0243 7.2076 23.9014 7.40877 23.5488L8.3873 21.8331C8.58853 21.4803 8.46563 21.0313 8.11289 20.8301Z" fill="white"/>
<path d="M17.8902 21.1045C17.689 20.7517 17.2399 20.629 16.8872 20.8301C16.5345 21.0312 16.4116 21.4803 16.6128 21.833L17.5914 23.5487C17.7925 23.9015 18.2415 24.0244 18.5943 23.8232C18.9471 23.622 19.0699 23.1729 18.8688 22.8202L17.8902 21.1045Z" fill="white"/>
<defs>
<clipPath id="clip0">
<rect width="25" height="25"/>
</clipPath>
</defs>
</svg>
